<svg xmlns="http://www.w3.org/2000/svg" xmlns:xlink="http://www.w3.org/1999/xlink" width="656" height="529"><defs><linearGradient id="linear-gradient" x1=".5" x2=".5" y2="1" gradientUnits="objectBoundingBox"><stop offset="0" stop-color="#2addff"/><stop offset="1" stop-color="#0e8efd"/></linearGradient><linearGradient id="linear-gradient-2" x1="-2.287" x2="-3.545" y1="1.043" y2="2.188" gradientUnits="objectBoundingBox"><stop offset="0" stop-color="#17057e" stop-opacity=".89"/><stop offset=".971" stop-color="#5558d0" stop-opacity=".027"/><stop offset="1" stop-color="#5558d0" stop-opacity="0"/></linearGradient><linearGradient id="linear-gradient-3" x1="-2.077" x2="-2.87" y1="2.677" y2="3.569" xlink:href="#linear-gradient-2"/><linearGradient id="linear-gradient-4" x1="-1.479" x2="-.709" y1="1.141" y2=".886" gradientUnits="objectBoundingBox"><stop offset="0" stop-color="#8cbdff"/><stop offset="1" stop-color="#83b8ff" stop-opacity="0"/></linearGradient><linearGradient id="linear-gradient-5" x1="-2.157" x2="-2.961" y1="1.934" y2="3.297" xlink:href="#linear-gradient-4"/><linearGradient id="linear-gradient-6" x1="-7.695" x2="-6.616" y1="1.552" y2=".947" xlink:href="#linear-gradient-4"/><linearGradient id="linear-gradient-7" x1="-1.501" x2="-2.198" y1="2.252" y2="2.103" xlink:href="#linear-gradient-4"/><linearGradient id="linear-gradient-8" x1="-7.337" x2="-6.347" y1="1.14" y2="1.14" gradientUnits="objectBoundingBox"><stop offset="0" stop-color="#fff" stop-opacity="0"/><stop offset="1" stop-color="#fff"/></linearGradient><clipPath id="clip-path"><path id="Rectangle_1054" d="M0 0h656v529H0z" data-name="Rectangle 1054" transform="translate(784 148)" stroke="#707070" fill="#fff"/></clipPath><style>.cls-14,.cls-23{fill:#fff}.cls-4{fill:#636282}.cls-5{fill:#2d294c}.cls-6{fill:#1aad9f}.cls-8{fill:#404040}.cls-9{fill:#f9afa2}.cls-12{fill:#fab9af}.cls-15{fill:#4161f9}.cls-16{fill:#4bd1c7}.cls-18{fill:#031b7f}.cls-23{fill-rule:evenodd}.cls-39{fill:#fcd22f}.cls-27{fill:#ffb000}.cls-29{fill:#4189ff}</style></defs><g id="Mask_Group_107" data-name="Mask Group 107" transform="translate(-784 -148)" clip-path="url(#clip-path)"><g id="Group_2468" data-name="Group 2468" transform="translate(638.166 -27.791)"><path id="Path_1583" d="M779.937 94.021c-12.562 9.419-25.5 18.143-40.346 22.233-26.342 7.258-57.175-.58-80.611 13.221-21.314 12.55-30.448 39.684-50.179 54.629-37.32 28.266-94.3 2.888-138.359 18.931a75.494 75.494 0 00-38.183 31.238c-13.665 22.158-16.8 52.01-36.334 68.757-28.732 24.639-79.088 9.04-106.089 35.66-23.617 23.29-19.652 70.537-48.986 85.778-8.329 4.328-18.146 5.156-26.716 9-25.825 11.568-11.264 43.737 12.478 49 11.977 2.654 24.1.285 36.168-.147 24.656-.884 50.013 6.639 71.22 21.129 8.484 5.8 16.6 12.812 26.281 15.557 15.553 4.408 31.028-3.138 46.788-4.4 53.556-4.3 99.605 62.673 152.625 55.05 27.392-3.938 48.175-27.469 75.525-31.629 39.357-5.986 75.31 28.907 114.786 39.121a96.276 96.276 0 0029.933 2.879z" data-name="Path 1583" transform="translate(72.803 65.888)" fill="url(#linear-gradient)"/><g id="Group_2243" data-name="Group 2243" transform="translate(146.076 447.36)"><g id="Group_2239" data-name="Group 2239" transform="translate(7.763 6.133)"><g id="Group_2238" data-name="Group 2238"><path id="Path_1584" d="M179.268 280.973l10.371 82.9h1.688l-5.42-85.93s-6.639 4.545-6.639 3.03z" class="cls-4" data-name="Path 1584" transform="translate(-109.416 -141.447)"/><path id="Path_1585" d="M189.116 279.66l39.539 85.972h1.688l-34.591-89s-6.636 4.544-6.636 3.028z" class="cls-4" data-name="Path 1585" transform="translate(-96.236 -143.204)"/><path id="Path_1586" d="M190.626 279.66l-39.539 85.972H149.4l34.591-89s6.635 4.544 6.635 3.028z" class="cls-4" data-name="Path 1586" transform="translate(-149.396 -143.204)"/><path id="Path_1587" d="M182.136 280.973l-10.371 82.9h-1.688l5.42-85.93s6.639 4.545 6.639 3.03z" class="cls-4" data-name="Path 1587" transform="translate(-121.717 -141.447)"/><g id="Group_2231" data-name="Group 2231" transform="translate(76.262 135.414)"><path id="Rectangle_1022" d="M0 0h46.011v1.152H0z" class="cls-5" data-name="Rectangle 1022" transform="rotate(-62.16 33.761 20.356)"/></g><g id="Group_2232" data-name="Group 2232" transform="translate(70.988 139.112)"><path id="Rectangle_1023" d="M0 0h1.152v54.287H0z" class="cls-5" data-name="Rectangle 1023" transform="rotate(-46.146 .974 .415)"/></g><g id="Group_2233" data-name="Group 2233" transform="translate(17.995 139.14)"><path id="Rectangle_1024" d="M0 0h58.099v1.152H0z" class="cls-5" data-name="Rectangle 1024" transform="matrix(.687 -.726 .726 .687 0 42.199)"/></g><path id="Path_1588" d="M200.383 296.261c1.536 4.672 3.19 9.389 3.456 14.3a2.811 2.811 0 01-.288 1.7 2.541 2.541 0 01-1.115.835c-4.761 2.2-10.314.182-15.113-1.927a18.76 18.76 0 01-5.02-2.878c-2.867-2.542-3.935-6.505-4.726-10.256a157.967 157.967 0 01-3.316-37.271c.122-4.038.486-8.325 2.895-11.568 2.072-2.787 7.82-5.24 10.567-1.971 2.446 2.914 2.364 10.588 3.164 14.252a350.147 350.147 0 009.496 34.784z" class="cls-6" data-name="Path 1588" transform="translate(-116.213 -184.66)"/><g id="Group_2234" data-name="Group 2234" transform="translate(34.819 136.925)"><path id="Rectangle_1025" d="M0 0h1.151v41.335H0z" class="cls-5" data-name="Rectangle 1025" transform="rotate(-31.328 1.066 .299)"/></g><path id="Path_1589" d="M175.672 238.011S201 231.87 209.448 283.3l1.328 5.755a19.107 19.107 0 0017.839 14.8l11.086.451a17.565 17.565 0 0115.88 11.8l2.991 8.643h19.958s-2.3 12.281-14.584 12.281h-80.6s-21.492 1.536-25.329-26.866-17.652-73.69 17.655-72.153z" data-name="Path 1589" transform="translate(-145.737 -195.199)" fill="#133bce"/><path id="Path_1590" d="M182.446 305.864l-3.863 6s11.816 12.987 15.235 15.482 4.7 1.041 4.359-3.112-8.9-14.6-8.9-14.6l-3.255-2.425z" class="cls-8" data-name="Path 1590" transform="translate(-110.333 -104.081)"/><path id="Path_1591" d="M186.428 322.588l-5.987-3.671 13.687-21.771 5.987 3.671z" class="cls-9" data-name="Path 1591" transform="translate(-107.847 -115.748)"/><g id="Group_2235" data-name="Group 2235" transform="translate(45.582 107.294)"><path id="Path_1592" d="M221.086 356.638l-20.844-10.593 5.3-10.424c7.483-14.727 15.576-32.365 19.362-42.579-10.52-1.405-28.7-2.839-44.335-3.638l-11.675-.594 1.19-23.353 11.675.6c56.343 2.874 61.1 6.835 63.943 9.2 8.226 6.856 5.523 17.369-6.215 43.547-6.183 13.789-12.819 26.863-13.1 27.413z" data-name="Path 1592" transform="translate(-168.889 -265.456)" fill="#262626"/></g><path id="Path_1593" d="M198.632 315.156l.608 7.113s17.29 3.066 21.52 2.956 4.359-2.048 1.55-5.128-15.959-6.129-15.959-6.129l-4.059.068z" class="cls-8" data-name="Path 1593" transform="translate(-83.5 -93.235)"/><path id="Path_1594" d="M208.268 328.565l-6.983.75-3.718-24.576 6.983-.75z" class="cls-9" data-name="Path 1594" transform="translate(-84.924 -106.59)"/><path id="Path_1595" d="M206.052 291.437l-19.794 1.1c-9.833 0-21.953-8.187-21.953-18.019l-.295-5.226 40.877-4.31z" class="cls-8" data-name="Path 1595" transform="translate(-129.836 -158.802)"/><g id="Group_2236" data-name="Group 2236" transform="translate(50.357 108.339)"><path id="Path_1596" d="M222.67 361.36l-.907-11.657c-1.567-20.11-5.224-44.817-8.294-50.8-3.645-2.493-18.045-6.353-30.962-8.2l-11.575-1.656 3.306-23.147 11.575 1.653c10.336 1.476 35.363 5.9 44.539 15.075 6.947 6.945 11.9 28.9 14.725 65.259l.9 11.657zm-9.459-62.914z" class="cls-8" data-name="Path 1596" transform="translate(-170.931 -265.903)"/></g><path id="Path_1597" d="M196.614 248.762l-6.314-10.04s-7.067-2.822-8.133-2.972a40.976 40.976 0 01-6.152-1.627s-.542 5.182-1.649 5.278c-10.2.9-13.343 9.784-13.913 14.722-.536 4.625-.22 14.269 15.337 26.987 4.326 3.538-1.875 11.285-4.831 14.961-3.358 4.174-2.811 11.327-2.193 16.57l40.608-5.491c-.255-5.289-1.932-11.418-6.166-14.809-3-2.4.178-16.764.178-16.764s5.444-12.791 1.906-17.145c-5.865-7.214-8.678-9.67-8.678-9.67z" data-name="Path 1597" transform="translate(-134.785 -200.098)" fill="#f2f2f2"/><g id="Group_2237" data-name="Group 2237" transform="translate(41.221 16.942)"><path id="Rectangle_1026" d="M0 0h14.559v24.48a2.783 2.783 0 01-2.783 2.783H2.783A2.783 2.783 0 010 24.48V0z" class="cls-12" data-name="Rectangle 1026"/><path id="Path_1598" d="M167.024 233.4c1.929 5 6.131 12.7 14.559 14.594v-20.15h-13.158l-1.4.615z" data-name="Path 1598" transform="translate(-167.024 -225.444)" fill="#e8948b"/></g><path id="Path_1599" d="M184.907 219.841a13.735 13.735 0 00-16.158 10.775l-1.578 7.9a13.871 13.871 0 0010.883 16.317l2.544.507a11 11 0 0012.945-8.633L195.684 236a13.733 13.733 0 00-10.777-16.159z" class="cls-12" data-name="Path 1599" transform="translate(-125.97 -219.572)"/><path id="Path_1600" d="M176.541 232.127a6.486 6.486 0 11-5.091-7.63 6.486 6.486 0 015.091 7.63z" class="cls-12" data-name="Path 1600" transform="translate(-130.262 -213.151)"/><path id="Path_1601" d="M178.586 232.719l-6.536-3.126s.351 3.961 2.474 4.782 4.062-1.656 4.062-1.656z" class="cls-14" data-name="Path 1601" transform="translate(-119.077 -206.16)"/><path id="Path_1602" d="M176.277 227.318a1.307 1.307 0 11-1.024-1.539 1.305 1.305 0 011.024 1.539z" class="cls-5" data-name="Path 1602" transform="translate(-116.884 -211.299)"/><path id="Path_1603" d="M180.118 228.085a1.308 1.308 0 11-1.027-1.539 1.308 1.308 0 011.027 1.539z" class="cls-5" data-name="Path 1603" transform="translate(-111.746 -210.273)"/><path id="Path_1604" d="M163.924 273.3c.945 4.139 2.271 8.308 1.875 12.536-.274 2.93-1.361 5.713-2.193 8.535a50.492 50.492 0 00-1.992 16.85c.178 3.393.741 6.886 2.591 9.737 3.55 5.469 10.7 7.123 17.15 8.065q9.386 1.368 18.857 2.023a3.59 3.59 0 001.91-.215 3.648 3.648 0 001.37-1.665q4.612-8.741 9.23-17.477a123.324 123.324 0 00-24.515-5.813 17.661 17.661 0 01-5.526-1.3c-3.087-1.508-4.939-4.826-5.671-8.184s-.528-6.833-.592-10.266c-.217-11.813-3.6-23.311-6.954-34.638-1.043-3.512-2.126-8.535-5.116-10.85-4.364 8.9-2.556 23.339-.424 32.662z" class="cls-6" data-name="Path 1604" transform="translate(-133.133 -191.368)"/><path id="Path_1605" d="M190.671 260.917c-2.018.412-4.237.564-6.024-.458s.185-3.987 1.443-5.617c2.5.369 4.688-1.5 7.02-2.467a17.05 17.05 0 014.459-1.022 19 19 0 015.858.007 8.4 8.4 0 015.032 2.806.566.566 0 01-.264.947 2.056 2.056 0 01-1.328-.243 11.5 11.5 0 00-4.209-.846c-.26 0-.327.449-.07.491 3.769.617 5.158 2.493 5.154 2.7 0 .225-.236.374-.454.43-.391.105-1.2-.295-1.583-.416a7.207 7.207 0 00-2.923-.325s-1.387.489 2.575 1.237a1.882 1.882 0 011.284.669.539.539 0 01.1.241.526.526 0 01-.082.3 1.15 1.15 0 01-.783.5 3.43 3.43 0 01-.954 0l-4.688-.409a33.418 33.418 0 013.73.933.62.62 0 01.306.416c.019.264-.262.437-.507.533-1.644.657-5.937.369-7.7.208s-3.657-.968-5.392-.615z" class="cls-9" data-name="Path 1605" transform="translate(-103.176 -177.339)"/><path id="Path_1606" d="M157.987 292.851c-1.7-12.578-5.35-28.463-5.832-42.13l11.986 34.479a18.185 18.185 0 0017.175 12.213h7.677a16.755 16.755 0 0115.487 10.359l4.934 11.947h-26.1s-21.49 1.534-25.327-26.868z" class="cls-15" data-name="Path 1606" transform="translate(-145.703 -177.887)"/><path id="Path_1607" d="M171.274 236.974c-13.693 4.434-10.109 5.713-12.122 15.459-1.4 6.77 1.779 31.582 9.433 36.006 6.248 3.615 14.208 2.53 20.907-.157s26.22-5.013 32.994-7.5c-.521-2.182-1.008-5.271-1.527-7.452-10.728 1.56-35.553-.047-46.36-.884-.461-5.977.952-11.919 1.452-17.891s-.982-12.942-4.777-17.581z" class="cls-16" data-name="Path 1607" transform="translate(-136.769 -196.281)"/><path id="Path_1608" d="M166.35 239.818a16.215 16.215 0 00-1.88.587 37.4 37.4 0 005.135 4.335 22.389 22.389 0 009.5 4.714c3.517.617 7.464-.276 9.8-2.974.14-.161.248-.344.376-.517l-4.338-7.223s-5.565 5.724-6.634 5.575c-2.5-.351-7.871-10.193-7.871-10.193s-.538 5.178-1.638 5.278a16.021 16.021 0 00-2.2.356c-.086.018-.166.044-.25.062z" class="cls-12" data-name="Path 1608" transform="translate(-129.221 -200.098)"/></g></g><g id="Group_2241" data-name="Group 2241" transform="translate(30.851 94.454)"><g id="Group_2240" data-name="Group 2240" transform="translate(38.723 4.583)"><path id="Rectangle_1027" d="M0 0h7.676v136.605H0z" class="cls-8" data-name="Rectangle 1027"/><path id="Rectangle_1028" d="M0 0h7.676v136.605H0z" class="cls-8" data-name="Rectangle 1028" transform="translate(102.423)"/></g><path id="Rectangle_1029" d="M0 0h187.546v12.283H0z" class="cls-8" data-name="Rectangle 1029"/></g><g id="Group_2242" data-name="Group 2242" transform="translate(97.227 54.533)"><path id="Path_1609" d="M189.441 259.587h48.7v-3.571h-48.7a1.786 1.786 0 00-1.787 1.787 1.786 1.786 0 001.787 1.784z" data-name="Path 1609" transform="translate(-187.655 -219.196)" fill="#8597ed"/><path id="Path_1610" d="M194.133 280.661H241.1a4.581 4.581 0 004.426-3.4l8.29-31.231a4.581 4.581 0 00-4.429-5.755h-41.01a4.581 4.581 0 00-4.427 3.4z" class="cls-18" data-name="Path 1610" transform="translate(-178.985 -240.27)"/><path id="Path_1611" d="M206.026 252.2a2.815 2.815 0 002.862 3.688 5.132 5.132 0 004.728-3.688 2.816 2.816 0 00-2.865-3.688 5.129 5.129 0 00-4.725 3.688z" class="cls-14" data-name="Path 1611" transform="translate(-163.22 -229.239)"/></g><path id="Path_1612" d="M221.9 221.843a5.424 5.424 0 117.616 7.721c-3.016 2.86-7.925 1.438-11.713-.271s-8.449-3.482-11.816-1.045a11.556 11.556 0 00-2.537 2.888q-2.406 3.451-4.81 6.905a5.738 5.738 0 00-6.505-3.505 5.881 5.881 0 00-4.34 6.024 6.025 6.025 0 005.245 5.3 2.648 2.648 0 011.8.54 2.155 2.155 0 01.33 1.583c-.236 4.389 1.256 10.42 1.02 14.809-3.872 5.184-14.944 2.044-18.742 7.286a10.816 10.816 0 01-1.978 2.584c-1.368 1.022-3.262.767-4.948 1.041-2.67.435-4.89 2.245-7.4 3.236A12.545 12.545 0 01150.4 255.7c2.79-2.364 6.646-3.557 8.647-6.618 1.644-2.511 1.649-5.706 1.936-8.694.524-5.437 2.673-11.353 7.625-13.651a15.588 15.588 0 016.433-1.179 45.155 45.155 0 0017.072-3.061c3.042-1.078 5.7-2.991 8.479-4.635s9.124-.58 12.349-.5 8.218 1.338 8.959 4.481z" data-name="Path 1612" transform="translate(-146.076 -216.949)" fill="#efdc8f"/></g><g id="Group_2247" data-name="Group 2247" transform="translate(169.731 423.518)"><g id="Group_2244" data-name="Group 2244" transform="translate(42.821 3.201)"><path id="Path_1613" d="M174.777 223.168l2.344-.111-.272-14.935-2.344.111z" data-name="Path 1613" transform="translate(-174.505 -208.122)" fill="#dd5065"/></g><g id="Group_2245" data-name="Group 2245" transform="translate(10.824 6.131)"><path id="Path_1614" d="M167.5 234.847l.669.091a25.375 25.375 0 0021.614-7.45l.47-.484L184.5 210.3l-22.752 7.843z" data-name="Path 1614" transform="translate(-159.582 -208.136)" fill="#122ab5"/><path id="Path_1615" d="M169.12 238.324l-.669-.094a2.161 2.161 0 01-1.754-1.438l-5.757-16.7a2.163 2.163 0 011.34-2.752l22.752-7.843a2.164 2.164 0 012.752 1.34l5.757 16.7a2.162 2.162 0 01-.493 2.214l-.472.484a27.642 27.642 0 01-23.456 8.088z" class="cls-18" data-name="Path 1615" transform="translate(-160.821 -209.375)"/></g><g id="Group_2246" data-name="Group 2246"><path id="Path_1616" d="M182.95 228.369l-24.7-1.157a2.166 2.166 0 01-1.309-3.8l18.735-16.13a2.157 2.157 0 011.513-.521l24.693 1.157a2.166 2.166 0 011.312 3.8l-18.733 16.13a2.183 2.183 0 01-.706.407 2.149 2.149 0 01-.805.114z" class="cls-18" data-name="Path 1616" transform="translate(-156.192 -206.753)"/></g></g><g id="Group_2464" data-name="Group 2464" transform="translate(330.297 44.791)"><g id="Group_2463" data-name="Group 2463"><path id="Path_1617" d="M562.374 99.53c-11.011 47.345-54.2 79.324-95.483 104.988q-55.49 34.5-113.771 64.2c-38.041 19.387-78.127 38.134-105.619 70.8-8.109 9.634-15.279 22.032-12.153 34.229 5.182 20.213 32.426 23.618 53.06 20.512 91.143-13.722 169.249-69.915 253.074-108.243 13.238-6.052 31.98-10.228 39.766 2.07 3.288 5.191 3.222 11.841 2.03 17.87-4.864 24.551-25.542 42.633-46.407 56.453-64.413 42.668-141.118 63.25-207.28 103.148-11.591 6.992-23.161 14.886-30.491 26.265s-9.48 27.071-1.892 38.281c9.267 13.691 28.893 15.793 45.018 12.143s31.255-11.605 47.71-13.2c6.791-.657 14.236.012 19.38 4.492 11.091 9.657 3.858 28.175-6.279 38.829-15 15.768-34.5 26.349-51.935 39.373s-33.731 30.093-37.444 51.538c-4.735 27.359 12.536 54.269 34.278 71.542 44.56 35.4 105.755 41.036 162.563 37.6a642.637 642.637 0 00311.962-103.565c21.534-14.126 42.523-29.861 57.968-50.469s24.906-46.8 20.9-72.242c-5.474-34.788-35.92-62.259-69.987-71.171s-70.684-1.721-102.9 12.515-60.919 35.15-89.957 55.073c-48.03 32.957-101.006 64.637-159.25 65.245a16.824 16.824 0 01-6.959-.966c-7.441-3.262-6.849-14.1-3.709-21.593 15.412-36.757 57.1-53.16 93.109-70.238 33.6-15.936 66.106-36.062 89.686-64.827 7.567-9.234 14.283-19.6 16.649-31.3s-.318-24.967-9.159-32.987c-7.45-6.758-18.036-8.914-28.093-9.028-50.31-.585-89.5 40.575-131.1 68.867A286.388 286.388 0 01386.884 491.1c-5.7.966-12.269 1.527-16.579-2.331-8.837-7.9 1.506-21.995 11.771-27.922 32.593-18.823 70.924-25.747 103.78-44.108 22.813-12.753 42.35-30.682 64.782-44.092 23.561-14.086 49.828-22.909 74.652-34.624s49.082-27.16 63.683-50.4 17.15-55.756-.009-77.183c-8.572-10.707-20.973-17.629-33.555-23.082-18.571-8.051-39.331-13.53-59-8.748-27.045 6.578-45.607 30.427-65.271 50.13a276.887 276.887 0 01-79.259 55.443c-4.81 2.231-10.233 4.361-15.274 2.724-6.826-2.214-9.868-10.8-8.182-17.774s6.83-12.543 12.108-17.407c55.77-51.393 142.984-58.567 195.855-112.941 17.124-17.608 30.1-43.706 20.594-66.354-8.638-20.578-33.906-30.509-55.934-26.915S560.167 63.482 545.1 79.944" data-name="Path 1617" transform="translate(-211.82 -44.791)" opacity=".1" fill="#fff"/><g id="Group_2314" data-name="Group 2314" transform="translate(0 301.996)"><path id="Path_1618" d="M240.255 223.664l2.02 1.154-2.061 1.078-1.154 2.02-1.078-2.061-2.02-1.154 2.061-1.078 1.154-2.02z" class="cls-23" data-name="Path 1618" transform="translate(-209.997 -110.148)"/><path id="Path_1619" d="M267.692 210.033l1.69.966-1.725.9-.966 1.689-.9-1.724-1.691-.964 1.725-.9.965-1.689z" class="cls-23" data-name="Path 1619" transform="translate(-172.336 -127.94)"/><path id="Path_1620" d="M267.859 198.5l1.689.965-1.724.9-.966 1.689-.9-1.724-1.689-.966 1.724-.9.966-1.689z" class="cls-23" data-name="Path 1620" transform="translate(-172.112 -143.376)"/><path id="Path_1621" d="M277.576 261.323l2.774 1.585-2.832 1.48-1.586 2.774-1.48-2.832-2.774-1.585 2.832-1.481 1.586-2.774z" class="cls-23" data-name="Path 1621" transform="translate(-162.193 -60.777)"/><path id="Path_1622" d="M312.569 263.96l2.774 1.585-2.832 1.481-1.586 2.774-1.48-2.832-2.774-1.585 2.829-1.483 1.585-2.774z" class="cls-23" data-name="Path 1622" transform="translate(-115.36 -57.247)"/><path id="Path_1623" d="M315.823 276.261l1.637.935-1.671.874-.936 1.637-.873-1.671-1.637-.935 1.671-.874.935-1.637z" class="cls-23" data-name="Path 1623" transform="translate(-107.77 -39.231)"/><path id="Path_1624" d="M316.209 208.614l1.574.9-1.607.84-.9 1.574-.84-1.607-1.574-.9 1.607-.84.9-1.574z" class="cls-23" data-name="Path 1624" transform="translate(-107.075 -129.681)"/><path id="Path_1625" d="M326.461 247.686l1.751 1-1.787.934-1 1.75-.934-1.787-1.751-1 1.787-.934 1-1.751z" class="cls-23" data-name="Path 1625" transform="translate(-93.857 -77.63)"/><path id="Path_1626" d="M252.117 257.949l1.064.608-1.086.568-.608 1.064-.568-1.086-1.064-.608 1.086-.568.608-1.064z" class="cls-23" data-name="Path 1626" transform="translate(-191.402 -62.957)"/><path id="Path_1627" d="M327.089 191.953l1.064.608-1.086.568-.608 1.064-.568-1.086-1.064-.608 1.086-.568.608-1.064z" class="cls-23" data-name="Path 1627" transform="translate(-91.062 -151.283)"/><path id="Path_1628" d="M300.542 191.327l1.064.608-1.086.568-.608 1.064-.568-1.086-1.064-.608 1.086-.568.608-1.064z" class="cls-23" data-name="Path 1628" transform="translate(-126.592 -152.121)"/><path id="Path_1629" d="M278.582 194.161l1.064.608-1.086.568-.608 1.064-.568-1.086-1.064-.608 1.086-.568.608-1.064z" class="cls-23" data-name="Path 1629" transform="translate(-155.981 -148.328)"/><path id="Path_1630" d="M337.81 218.254l1.064.608-1.086.568-.608 1.064-.568-1.086-1.064-.608 1.086-.568.608-1.064z" class="cls-23" data-name="Path 1630" transform="translate(-76.712 -116.082)"/><path id="Path_1631" d="M227.12 239.3l1.064.608-1.086.568-.608 1.064-.568-1.086-1.064-.608 1.086-.568.608-1.064z" class="cls-23" data-name="Path 1631" transform="translate(-224.858 -87.915)"/><path id="Path_1632" d="M301.042 226.827l1.064.608-1.086.568-.608 1.064-.568-1.086-1.064-.608 1.086-.568.608-1.064z" class="cls-23" data-name="Path 1632" transform="translate(-125.923 -104.609)"/><path id="Path_1633" d="M250.862 269.722l1.064.608-1.086.568-.608 1.064-.568-1.086-1.064-.608 1.086-.568.608-1.064z" class="cls-23" data-name="Path 1633" transform="translate(-193.082 -47.2)"/><g id="Group_2249" data-name="Group 2249" transform="translate(193.249 105.814)"><g id="Group_2248" data-name="Group 2248"><path id="Path_1634" d="M308.126 220.483a.647.647 0 000-1.293.647.647 0 000 1.293z" class="cls-14" data-name="Path 1634" transform="translate(-307.501 -219.19)"/></g></g><g id="Group_2251" data-name="Group 2251" transform="translate(75.71 26.912)"><g id="Group_2250" data-name="Group 2250"><path id="Path_1635" d="M257.859 186.741a.647.647 0 000-1.293.647.647 0 000 1.293z" class="cls-14" data-name="Path 1635" transform="translate(-257.235 -185.448)"/></g></g><g id="Group_2253" data-name="Group 2253" transform="translate(112.335 95.436)"><g id="Group_2252" data-name="Group 2252"><path id="Path_1636" d="M273.522 216.045a.647.647 0 000-1.293.647.647 0 000 1.293z" class="cls-14" data-name="Path 1636" transform="translate(-272.898 -214.752)"/></g></g><g id="Group_2255" data-name="Group 2255" transform="translate(150.105 138.357)"><g id="Group_2254" data-name="Group 2254"><path id="Path_1637" d="M289.674 234.4a.646.646 0 000-1.291.646.646 0 000 1.291z" class="cls-14" data-name="Path 1637" transform="translate(-289.05 -233.107)"/></g></g><g id="Group_2257" data-name="Group 2257" transform="translate(167.151 73.925)"><g id="Group_2256" data-name="Group 2256"><path id="Path_1638" d="M296.965 206.844a.646.646 0 000-1.291.646.646 0 000 1.291z" class="cls-14" data-name="Path 1638" transform="translate(-296.34 -205.553)"/></g></g><g id="Group_2259" data-name="Group 2259" transform="translate(75.656 175.64)"><g id="Group_2258" data-name="Group 2258"><path id="Path_1639" d="M257.836 250.344a.647.647 0 000-1.293.647.647 0 000 1.293z" class="cls-14" data-name="Path 1639" transform="translate(-257.212 -249.051)"/></g></g><g id="Group_2261" data-name="Group 2261" transform="translate(84.544 144.855)"><g id="Group_2260" data-name="Group 2260"><path id="Path_1640" d="M261.637 237.179a.647.647 0 000-1.293.647.647 0 000 1.293z" class="cls-14" data-name="Path 1640" transform="translate(-261.013 -235.886)"/></g></g><g id="Group_2263" data-name="Group 2263" transform="translate(141.518 95.595)"><g id="Group_2262" data-name="Group 2262"><path id="Path_1641" d="M286 216.113a.647.647 0 000-1.293.647.647 0 000 1.293z" class="cls-14" data-name="Path 1641" transform="translate(-285.378 -214.82)"/></g></g><g id="Group_2265" data-name="Group 2265" transform="translate(262.173 68.877)"><g id="Group_2264" data-name="Group 2264"><path id="Path_1642" d="M337.6 204.687a.647.647 0 000-1.293.647.647 0 000 1.293z" class="cls-14" data-name="Path 1642" transform="translate(-336.976 -203.394)"/></g></g><g id="Group_2267" data-name="Group 2267" transform="translate(49.269 78.906)"><g id="Group_2266" data-name="Group 2266"><path id="Path_1643" d="M246.553 208.976a.647.647 0 000-1.293.647.647 0 000 1.293z" class="cls-14" data-name="Path 1643" transform="translate(-245.928 -207.683)"/></g></g><g id="Group_2269" data-name="Group 2269" transform="translate(144.322 200.108)"><g id="Group_2268" data-name="Group 2268"><path id="Path_1644" d="M287.2 260.808a.647.647 0 000-1.293.647.647 0 000 1.293z" class="cls-14" data-name="Path 1644" transform="translate(-286.577 -259.515)"/></g></g><g id="Group_2271" data-name="Group 2271" transform="translate(218.205 142.828)"><g id="Group_2270" data-name="Group 2270"><path id="Path_1645" d="M318.8 236.312a.647.647 0 000-1.293.647.647 0 000 1.293z" class="cls-14" data-name="Path 1645" transform="translate(-318.173 -235.019)"/></g></g><g id="Group_2273" data-name="Group 2273" transform="translate(130.075 67.967)"><g id="Group_2272" data-name="Group 2272"><path id="Path_1646" d="M281.108 204.3a.647.647 0 000-1.293.647.647 0 000 1.293z" class="cls-14" data-name="Path 1646" transform="translate(-280.484 -203.005)"/></g></g><g id="Group_2275" data-name="Group 2275" transform="translate(61.568 114.248)"><g id="Group_2274" data-name="Group 2274"><path id="Path_1647" d="M251.811 224.09a.647.647 0 000-1.293.647.647 0 000 1.293z" class="cls-14" data-name="Path 1647" transform="translate(-251.187 -222.797)"/></g></g><g id="Group_2277" data-name="Group 2277" transform="translate(129.503 110.462)"><g id="Group_2276" data-name="Group 2276"><path id="Path_1648" d="M280.865 222.471a.647.647 0 000-1.293.647.647 0 000 1.293z" class="cls-14" data-name="Path 1648" transform="translate(-280.24 -221.178)"/></g></g><g id="Group_2279" data-name="Group 2279" transform="translate(91.698 118.639)"><g id="Group_2278" data-name="Group 2278"><path id="Path_1649" d="M264.7 225.968a.647.647 0 000-1.293.647.647 0 000 1.293z" class="cls-14" data-name="Path 1649" transform="translate(-264.072 -224.675)"/></g></g><g id="Group_2281" data-name="Group 2281" transform="translate(167.465 181.843)"><g id="Group_2280" data-name="Group 2280"><path id="Path_1650" d="M297.1 253a.647.647 0 000-1.293.647.647 0 000 1.293z" class="cls-14" data-name="Path 1650" transform="translate(-296.474 -251.704)"/></g></g><g id="Group_2283" data-name="Group 2283" transform="translate(113.191 179.353)"><g id="Group_2282" data-name="Group 2282"><path id="Path_1651" d="M273.888 251.932a.647.647 0 000-1.293.647.647 0 000 1.293z" class="cls-14" data-name="Path 1651" transform="translate(-273.264 -250.639)"/></g></g><g id="Group_2285" data-name="Group 2285" transform="translate(239.377 88.145)"><g id="Group_2284" data-name="Group 2284"><path id="Path_1652" d="M327.851 212.927a.647.647 0 000-1.293.647.647 0 000 1.293z" class="cls-14" data-name="Path 1652" transform="translate(-327.227 -211.634)"/></g></g><g id="Group_2287" data-name="Group 2287" transform="translate(243.955 119.619)"><g id="Group_2286" data-name="Group 2286"><path id="Path_1653" d="M329.809 226.387a.647.647 0 000-1.293.647.647 0 000 1.293z" class="cls-14" data-name="Path 1653" transform="translate(-329.185 -225.094)"/></g></g><g id="Group_2289" data-name="Group 2289" transform="translate(255.148 28.217)"><g id="Group_2288" data-name="Group 2288"><path id="Path_1654" d="M334.595 187.3a.647.647 0 000-1.293.647.647 0 000 1.293z" class="cls-14" data-name="Path 1654" transform="translate(-333.971 -186.006)"/></g></g><g id="Group_2291" data-name="Group 2291" transform="translate(262.26 171.87)"><g id="Group_2290" data-name="Group 2290"><path id="Path_1655" d="M337.637 248.73a.646.646 0 000-1.291.646.646 0 000 1.291z" class="cls-14" data-name="Path 1655" transform="translate(-337.013 -247.439)"/></g></g><g id="Group_2293" data-name="Group 2293" transform="translate(124.447 226.656)"><g id="Group_2292" data-name="Group 2292"><path id="Path_1656" d="M278.7 272.161a.647.647 0 000-1.293.647.647 0 000 1.293z" class="cls-14" data-name="Path 1656" transform="translate(-278.077 -270.868)"/></g></g><g id="Group_2295" data-name="Group 2295" transform="translate(263.035 200.305)"><g id="Group_2294" data-name="Group 2294"><path id="Path_1657" d="M337.97 260.892a.647.647 0 000-1.293.647.647 0 000 1.293z" class="cls-14" data-name="Path 1657" transform="translate(-337.345 -259.599)"/></g></g><g id="Group_2297" data-name="Group 2297" transform="translate(178.577 158.506)"><g id="Group_2296" data-name="Group 2296"><path id="Path_1658" d="M301.85 243.017a.647.647 0 000-1.293.647.647 0 000 1.293z" class="cls-14" data-name="Path 1658" transform="translate(-301.226 -241.724)"/></g></g><g id="Group_2299" data-name="Group 2299" transform="translate(36.607 149.656)"><g id="Group_2298" data-name="Group 2298"><path id="Path_1659" d="M241.137 239.23a.646.646 0 000-1.291.646.646 0 000 1.291z" class="cls-14" data-name="Path 1659" transform="translate(-240.513 -237.939)"/></g></g><g id="Group_2301" data-name="Group 2301" transform="translate(214.055 198.862)"><g id="Group_2300" data-name="Group 2300"><path id="Path_1660" d="M317.022 260.275a.647.647 0 000-1.293.647.647 0 000 1.293z" class="cls-14" data-name="Path 1660" transform="translate(-316.398 -258.982)"/></g></g><g id="Group_2303" data-name="Group 2303" transform="translate(241.08 218.612)"><g id="Group_2302" data-name="Group 2302"><path id="Path_1661" d="M328.581 268.721a.647.647 0 000-1.293.647.647 0 000 1.293z" class="cls-14" data-name="Path 1661" transform="translate(-327.956 -267.428)"/></g></g><g id="Group_2305" data-name="Group 2305" transform="translate(221.065 24.052)"><g id="Group_2304" data-name="Group 2304"><path id="Path_1662" d="M320.02 185.518a.647.647 0 000-1.293.647.647 0 000 1.293z" class="cls-14" data-name="Path 1662" transform="translate(-319.396 -184.225)"/></g></g><g id="Group_2307" data-name="Group 2307" transform="translate(232.291 185.631)"><g id="Group_2306" data-name="Group 2306"><path id="Path_1663" d="M324.822 254.617a.647.647 0 000-1.293.647.647 0 000 1.293z" class="cls-14" data-name="Path 1663" transform="translate(-324.197 -253.324)"/></g></g><g id="Group_2309" data-name="Group 2309" transform="translate(154.438 232.09)"><g id="Group_2308" data-name="Group 2308"><path id="Path_1664" d="M291.527 274.485a.647.647 0 000-1.293.647.647 0 000 1.293z" class="cls-14" data-name="Path 1664" transform="translate(-290.903 -273.192)"/></g></g><g id="Group_2311" data-name="Group 2311" transform="translate(173.402)"><g id="Group_2310" data-name="Group 2310"><path id="Path_1665" d="M299.637 175.23a.646.646 0 000-1.291.646.646 0 000 1.291z" class="cls-14" data-name="Path 1665" transform="translate(-299.013 -173.939)"/></g></g><g id="Group_2313" data-name="Group 2313" transform="translate(59.115 46.37)"><g id="Group_2312" data-name="Group 2312"><path id="Path_1666" d="M250.762 195.062a.647.647 0 000-1.293.647.647 0 000 1.293z" class="cls-14" data-name="Path 1666" transform="translate(-250.138 -193.769)"/></g></g></g><g id="Group_2381" data-name="Group 2381" transform="translate(208.577 103.268)"><path id="Path_1667" d="M373 138.678l2.02 1.154-2.062 1.078-1.154 2.02-1.078-2.061-2.02-1.154 2.061-1.078 1.155-2.02z" class="cls-23" data-name="Path 1667" transform="translate(-240.913 -25.162)"/><path id="Path_1668" d="M346.2 168.5l2.02 1.154-2.061 1.078-1.159 2.02-1.078-2.062-2.02-1.154 2.061-1.078 1.154-2.02z" class="cls-23" data-name="Path 1668" transform="translate(-276.783 14.751)"/><path id="Path_1669" d="M400.436 125.047l1.689.966-1.724.9-.966 1.689-.9-1.724-1.689-.965 1.724-.9.966-1.689z" class="cls-23" data-name="Path 1669" transform="translate(-203.253 -42.954)"/><path id="Path_1670" d="M400.6 113.513l1.689.966-1.724.9-.965 1.689-.9-1.724-1.689-.966 1.724-.9.966-1.69z" class="cls-23" data-name="Path 1670" transform="translate(-203.029 -58.39)"/><path id="Path_1671" d="M410.321 176.337l2.774 1.585-2.832 1.481-1.585 2.774-1.48-2.832-2.774-1.585 2.832-1.481 1.585-2.774z" class="cls-23" data-name="Path 1671" transform="translate(-193.11 24.209)"/><path id="Path_1672" d="M445.313 178.974l2.774 1.585-2.832 1.481-1.585 2.774-1.48-2.832-2.774-1.585 2.832-1.481 1.585-2.774z" class="cls-23" data-name="Path 1672" transform="translate(-146.277 27.739)"/><path id="Path_1673" d="M448.567 191.275l1.637.935-1.671.874-.936 1.637-.873-1.671-1.637-.936 1.671-.873.936-1.637z" class="cls-23" data-name="Path 1673" transform="translate(-138.687 45.755)"/><path id="Path_1674" d="M448.953 123.628l1.574.9-1.607.84-.9 1.574-.84-1.607-1.574-.9 1.607-.84.9-1.574z" class="cls-23" data-name="Path 1674" transform="translate(-137.992 -44.695)"/><path id="Path_1675" d="M459.2 162.7l1.751 1-1.787.934-1 1.751-.934-1.787-1.751-1 1.787-.934 1-1.751z" class="cls-23" data-name="Path 1675" transform="translate(-124.773 7.356)"/><path id="Path_1676" d="M336.41 149.461l1.751 1-1.787.934-1 1.751-.934-1.787-1.751-1 1.787-.934 1-1.751z" class="cls-23" data-name="Path 1676" transform="translate(-289.118 -10.362)"/><path id="Path_1677" d="M384.861 172.962l1.064.608-1.086.568-.608 1.064-.568-1.086-1.064-.608 1.086-.568.608-1.064z" class="cls-23" data-name="Path 1677" transform="translate(-222.319 22.029)"/><path id="Path_1678" d="M459.833 106.967l1.064.608-1.086.568-.608 1.064-.568-1.086-1.064-.608 1.086-.568.608-1.064z" class="cls-23" data-name="Path 1678" transform="translate(-121.979 -66.297)"/><path id="Path_1679" d="M433.285 106.341l1.064.608-1.086.568-.608 1.064-.568-1.086-1.064-.608 1.086-.568.608-1.064z" class="cls-23" data-name="Path 1679" transform="translate(-157.509 -67.135)"/><path id="Path_1680" d="M411.326 109.174l1.064.608-1.086.568-.608 1.064-.568-1.086-1.064-.608 1.086-.568.608-1.064z" class="cls-23" data-name="Path 1680" transform="translate(-186.898 -63.342)"/><path id="Path_1681" d="M470.554 133.268l1.064.608-1.086.568-.608 1.064-.568-1.086-1.064-.608 1.086-.568.608-1.064z" class="cls-23" data-name="Path 1681" transform="translate(-107.629 -31.097)"/><path id="Path_1682" d="M316.317 150.525l1.064.608-1.086.568-.608 1.064-.568-1.086-1.064-.608 1.086-.568.608-1.064z" class="cls-23" data-name="Path 1682" transform="translate(-314.056 -8.001)"/><path id="Path_1683" d="M359.863 154.314l1.064.608-1.086.568-.608 1.064-.568-1.086-1.064-.608 1.086-.568.608-1.064z" class="cls-23" data-name="Path 1683" transform="translate(-255.774 -2.929)"/><path id="Path_1684" d="M433.785 141.841l1.064.608-1.086.568-.608 1.064-.568-1.086-1.064-.608 1.086-.568.608-1.064z" class="cls-23" data-name="Path 1684" transform="translate(-156.84 -19.623)"/><path id="Path_1685" d="M383.606 184.736l1.064.608-1.086.568-.608 1.064-.568-1.086-1.064-.608 1.086-.568.608-1.064z" class="cls-23" data-name="Path 1685" transform="translate(-223.999 37.786)"/><g id="Group_2316" data-name="Group 2316" transform="translate(295.077 105.813)"><g id="Group_2315" data-name="Group 2315"><path id="Path_1686" d="M440.87 135.5a.647.647 0 000-1.293.647.647 0 000 1.293z" class="cls-14" data-name="Path 1686" transform="translate(-440.245 -134.204)"/></g></g><g id="Group_2318" data-name="Group 2318" transform="translate(177.538 26.912)"><g id="Group_2317" data-name="Group 2317"><path id="Path_1687" d="M390.6 101.755a.647.647 0 000-1.293.647.647 0 000 1.293z" class="cls-14" data-name="Path 1687" transform="translate(-389.979 -100.462)"/></g></g><g id="Group_2320" data-name="Group 2320" transform="translate(214.163 95.436)"><g id="Group_2319" data-name="Group 2319"><path id="Path_1688" d="M406.266 131.059a.647.647 0 000-1.293.647.647 0 000 1.293z" class="cls-14" data-name="Path 1688" transform="translate(-405.642 -129.766)"/></g></g><g id="Group_2322" data-name="Group 2322" transform="translate(251.932 138.357)"><g id="Group_2321" data-name="Group 2321"><path id="Path_1689" d="M422.418 149.412a.646.646 0 000-1.291.646.646 0 000 1.291z" class="cls-14" data-name="Path 1689" transform="translate(-421.794 -148.121)"/></g></g><g id="Group_2324" data-name="Group 2324" transform="translate(268.978 73.925)"><g id="Group_2323" data-name="Group 2323"><path id="Path_1690" d="M429.709 121.858a.646.646 0 000-1.291.646.646 0 000 1.291z" class="cls-14" data-name="Path 1690" transform="translate(-429.084 -120.567)"/></g></g><g id="Group_2326" data-name="Group 2326" transform="translate(177.483 175.64)"><g id="Group_2325" data-name="Group 2325"><path id="Path_1691" d="M390.58 165.358a.647.647 0 000-1.293.647.647 0 000 1.293z" class="cls-14" data-name="Path 1691" transform="translate(-389.956 -164.065)"/></g></g><g id="Group_2328" data-name="Group 2328" transform="translate(186.371 144.855)"><g id="Group_2327" data-name="Group 2327"><path id="Path_1692" d="M394.381 152.193a.647.647 0 000-1.293.647.647 0 000 1.293z" class="cls-14" data-name="Path 1692" transform="translate(-393.757 -150.9)"/></g></g><g id="Group_2330" data-name="Group 2330" transform="translate(243.346 95.595)"><g id="Group_2329" data-name="Group 2329"><path id="Path_1693" d="M418.746 131.125a.646.646 0 000-1.291.646.646 0 000 1.291z" class="cls-14" data-name="Path 1693" transform="translate(-418.122 -129.834)"/></g></g><g id="Group_2332" data-name="Group 2332" transform="translate(364.001 68.877)"><g id="Group_2331" data-name="Group 2331"><path id="Path_1694" d="M470.344 119.7a.647.647 0 000-1.293.647.647 0 000 1.293z" class="cls-14" data-name="Path 1694" transform="translate(-469.72 -118.408)"/></g></g><g id="Group_2334" data-name="Group 2334" transform="translate(151.096 78.906)"><g id="Group_2333" data-name="Group 2333"><path id="Path_1695" d="M379.3 123.988a.646.646 0 000-1.291.646.646 0 000 1.291z" class="cls-14" data-name="Path 1695" transform="translate(-378.672 -122.697)"/></g></g><g id="Group_2336" data-name="Group 2336" transform="translate(246.148 200.108)"><g id="Group_2335" data-name="Group 2335"><path id="Path_1696" d="M419.946 175.822a.647.647 0 000-1.293.647.647 0 000 1.293z" class="cls-14" data-name="Path 1696" transform="translate(-419.321 -174.529)"/></g></g><g id="Group_2338" data-name="Group 2338" transform="translate(320.032 142.828)"><g id="Group_2337" data-name="Group 2337"><path id="Path_1697" d="M451.541 151.326a.647.647 0 000-1.293.647.647 0 000 1.293z" class="cls-14" data-name="Path 1697" transform="translate(-450.917 -150.033)"/></g></g><g id="Group_2340" data-name="Group 2340" transform="translate(231.903 67.967)"><g id="Group_2339" data-name="Group 2339"><path id="Path_1698" d="M413.852 119.312a.647.647 0 000-1.293.647.647 0 000 1.293z" class="cls-14" data-name="Path 1698" transform="translate(-413.228 -118.019)"/></g></g><g id="Group_2342" data-name="Group 2342" transform="translate(163.394 114.248)"><g id="Group_2341" data-name="Group 2341"><path id="Path_1699" d="M384.555 139.1a.647.647 0 000-1.293.647.647 0 000 1.293z" class="cls-14" data-name="Path 1699" transform="translate(-383.931 -137.811)"/></g></g><g id="Group_2344" data-name="Group 2344" transform="translate(231.33 110.462)"><g id="Group_2343" data-name="Group 2343"><path id="Path_1700" d="M413.609 137.485a.647.647 0 000-1.293.647.647 0 000 1.293z" class="cls-14" data-name="Path 1700" transform="translate(-412.984 -136.192)"/></g></g><g id="Group_2346" data-name="Group 2346" transform="translate(193.524 118.639)"><g id="Group_2345" data-name="Group 2345"><path id="Path_1701" d="M397.44 140.982a.647.647 0 000-1.293.647.647 0 000 1.293z" class="cls-14" data-name="Path 1701" transform="translate(-396.816 -139.689)"/></g></g><g id="Group_2348" data-name="Group 2348" transform="translate(269.292 181.843)"><g id="Group_2347" data-name="Group 2347"><path id="Path_1702" d="M429.842 168.009a.646.646 0 000-1.291.646.646 0 000 1.291z" class="cls-14" data-name="Path 1702" transform="translate(-429.218 -166.718)"/></g></g><g id="Group_2350" data-name="Group 2350" transform="translate(215.019 179.353)"><g id="Group_2349" data-name="Group 2349"><path id="Path_1703" d="M406.632 166.946a.647.647 0 000-1.293.647.647 0 000 1.293z" class="cls-14" data-name="Path 1703" transform="translate(-406.008 -165.653)"/></g></g><g id="Group_2352" data-name="Group 2352" transform="translate(341.204 88.145)"><g id="Group_2351" data-name="Group 2351"><path id="Path_1704" d="M460.6 127.941a.647.647 0 000-1.293.647.647 0 000 1.293z" class="cls-14" data-name="Path 1704" transform="translate(-459.971 -126.648)"/></g></g><g id="Group_2354" data-name="Group 2354" transform="translate(345.783 119.619)"><g id="Group_2353" data-name="Group 2353"><path id="Path_1705" d="M462.553 141.4a.647.647 0 000-1.293.647.647 0 000 1.293z" class="cls-14" data-name="Path 1705" transform="translate(-461.929 -140.108)"/></g></g><g id="Group_2356" data-name="Group 2356" transform="translate(356.974 28.217)"><g id="Group_2355" data-name="Group 2355"><path id="Path_1706" d="M467.339 102.313a.647.647 0 000-1.293.647.647 0 000 1.293z" class="cls-14" data-name="Path 1706" transform="translate(-466.715 -101.02)"/></g></g><g id="Group_2358" data-name="Group 2358" transform="translate(364.087 171.87)"><g id="Group_2357" data-name="Group 2357"><path id="Path_1707" d="M470.381 163.744a.646.646 0 000-1.291.646.646 0 000 1.291z" class="cls-14" data-name="Path 1707" transform="translate(-469.757 -162.453)"/></g></g><g id="Group_2360" data-name="Group 2360" transform="translate(226.274 226.656)"><g id="Group_2359" data-name="Group 2359"><path id="Path_1708" d="M411.445 187.175a.647.647 0 000-1.293.647.647 0 000 1.293z" class="cls-14" data-name="Path 1708" transform="translate(-410.821 -185.882)"/></g></g><g id="Group_2362" data-name="Group 2362" transform="translate(364.863 200.305)"><g id="Group_2361" data-name="Group 2361"><path id="Path_1709" d="M470.714 175.906a.647.647 0 000-1.293.647.647 0 000 1.293z" class="cls-14" data-name="Path 1709" transform="translate(-470.089 -174.613)"/></g></g><g id="Group_2364" data-name="Group 2364" transform="translate(280.403 158.506)"><g id="Group_2363" data-name="Group 2363"><path id="Path_1710" d="M434.595 158.031a.647.647 0 000-1.293.647.647 0 000 1.293z" class="cls-14" data-name="Path 1710" transform="translate(-433.97 -156.738)"/></g></g><g id="Group_2366" data-name="Group 2366" transform="translate(138.435 149.656)"><g id="Group_2365" data-name="Group 2365"><path id="Path_1711" d="M373.881 154.244a.646.646 0 000-1.291.646.646 0 000 1.291z" class="cls-14" data-name="Path 1711" transform="translate(-373.257 -152.953)"/></g></g><g id="Group_2368" data-name="Group 2368" transform="translate(315.882 198.862)"><g id="Group_2367" data-name="Group 2367"><path id="Path_1712" d="M449.766 175.289a.647.647 0 000-1.293.647.647 0 000 1.293z" class="cls-14" data-name="Path 1712" transform="translate(-449.142 -173.996)"/></g></g><g id="Group_2370" data-name="Group 2370" transform="translate(342.908 218.612)"><g id="Group_2369" data-name="Group 2369"><path id="Path_1713" d="M461.325 183.735a.647.647 0 000-1.293.647.647 0 000 1.293z" class="cls-14" data-name="Path 1713" transform="translate(-460.7 -182.442)"/></g></g><g id="Group_2372" data-name="Group 2372" transform="translate(322.892 24.052)"><g id="Group_2371" data-name="Group 2371"><path id="Path_1714" d="M452.764 100.532a.647.647 0 000-1.293.647.647 0 000 1.293z" class="cls-14" data-name="Path 1714" transform="translate(-452.14 -99.239)"/></g></g><g id="Group_2374" data-name="Group 2374" transform="translate(334.118 185.631)"><g id="Group_2373" data-name="Group 2373"><path id="Path_1715" d="M457.566 169.631a.647.647 0 000-1.293.647.647 0 000 1.293z" class="cls-14" data-name="Path 1715" transform="translate(-456.941 -168.338)"/></g></g><g id="Group_2376" data-name="Group 2376" transform="translate(256.265 232.09)"><g id="Group_2375" data-name="Group 2375"><path id="Path_1716" d="M424.271 189.5a.646.646 0 000-1.291.646.646 0 000 1.291z" class="cls-14" data-name="Path 1716" transform="translate(-423.647 -188.206)"/></g></g><g id="Group_2378" data-name="Group 2378" transform="translate(275.229)"><g id="Group_2377" data-name="Group 2377"><path id="Path_1717" d="M432.381 90.244a.646.646 0 000-1.291.646.646 0 000 1.291z" class="cls-14" data-name="Path 1717" transform="translate(-431.757 -88.953)"/></g></g><g id="Group_2380" data-name="Group 2380" transform="translate(160.942 46.37)"><g id="Group_2379" data-name="Group 2379"><path id="Path_1718" d="M383.506 110.076a.647.647 0 000-1.293.647.647 0 000 1.293z" class="cls-14" data-name="Path 1718" transform="translate(-382.882 -108.783)"/></g></g></g><g id="Group_2448" data-name="Group 2448" transform="translate(265.879 318.88)"><path id="Path_1719" d="M425.466 199.7l-1.541 1.743-.636-2.238-1.743-1.541 2.237-.636 1.541-1.743.636 2.237 1.743 1.541z" class="cls-23" data-name="Path 1719" transform="translate(-227.496 -162.259)"/><path id="Path_1720" d="M432.6 229.271l-1.289 1.458-.533-1.872-1.458-1.289 1.872-.532 1.289-1.458.532 1.872 1.458 1.289z" class="cls-23" data-name="Path 1720" transform="translate(-217.093 -121.709)"/><path id="Path_1721" d="M443.856 231.78l-1.289 1.458-.532-1.872-1.458-1.289 1.872-.532 1.289-1.458.532 1.872 1.458 1.289z" class="cls-23" data-name="Path 1721" transform="translate(-202.025 -118.352)"/><path id="Path_1722" d="M356.778 231.386l-.166 3.191-2.6-1.862-3.191-.167 1.862-2.6.166-3.191 2.6 1.862 3.191.167z" class="cls-23" data-name="Path 1722" transform="translate(-322.148 -120.127)"/><path id="Path_1723" d="M373.47 261.107l-.131 3.193-2.617-1.833-3.193-.132 1.833-2.617.132-3.193 2.617 1.833 3.193.132z" class="cls-23" data-name="Path 1723" transform="translate(-299.79 -80.291)"/><path id="Path_1724" d="M343.945 284.5l-2.116 2.394-.874-3.074-2.394-2.116 3.074-.874 2.116-2.394.874 3.074 2.394 2.116z" class="cls-23" data-name="Path 1724" transform="translate(-338.561 -50.964)"/><path id="Path_1725" d="M357.867 262.925l-1.249 1.413-.516-1.813-1.412-1.249 1.813-.516 1.249-1.412.516 1.813 1.413 1.249z" class="cls-23" data-name="Path 1725" transform="translate(-316.973 -76.515)"/><path id="Path_1726" d="M423.9 277.043l-1.2 1.358-.5-1.744-1.359-1.2 1.744-.5 1.2-1.359.5 1.744 1.359 1.2z" class="cls-23" data-name="Path 1726" transform="translate(-228.432 -57.436)"/><path id="Path_1727" d="M383.9 279.17l-1.335 1.511-.552-1.939-1.511-1.335 1.939-.552 1.335-1.511.552 1.94 1.511 1.335z" class="cls-23" data-name="Path 1727" transform="translate(-282.424 -55.107)"/><path id="Path_1728" d="M362.85 198.26l-.812.918L361.7 198l-.918-.811 1.179-.335.812-.918.335 1.179.918.811z" class="cls-23" data-name="Path 1728" transform="translate(-308.816 -161.384)"/><path id="Path_1729" d="M437.019 290.992l-.811.918-.335-1.179-.918-.811 1.179-.335.812-.918.335 1.179.918.811z" class="cls-23" data-name="Path 1729" transform="translate(-209.551 -37.276)"/><path id="Path_1730" d="M443.028 265.126l-.811.918-.335-1.179-.918-.812 1.179-.335.812-.918.335 1.178.918.812z" class="cls-23" data-name="Path 1730" transform="translate(-201.508 -71.893)"/><path id="Path_1731" d="M444.717 243.049l-.811.918-.335-1.179-.918-.811 1.178-.335.812-.918.335 1.179.918.811z" class="cls-23" data-name="Path 1731" transform="translate(-199.247 -101.44)"/><path id="Path_1732" d="M409.087 296.143l-.812.918-.335-1.178-.918-.811 1.178-.335.812-.918.335 1.179.918.811z" class="cls-23" data-name="Path 1732" transform="translate(-246.934 -30.381)"/><path id="Path_1733" d="M410.981 183.485l-.811.918-.335-1.179-.918-.811 1.178-.335.812-.918.335 1.179.918.811z" class="cls-23" data-name="Path 1733" transform="translate(-244.398 -181.159)"/><path id="Path_1734" d="M408.168 258.4l-.812.918-.335-1.178-.918-.812 1.179-.335.812-.918.335 1.179.918.812z" class="cls-23" data-name="Path 1734" transform="translate(-248.164 -80.896)"/><path id="Path_1735" d="M376.369 200.547l-.812.918-.335-1.179-.918-.811 1.179-.335.812-.918.335 1.179.918.812z" class="cls-23" data-name="Path 1735" transform="translate(-290.723 -158.323)"/><g id="Group_2383" data-name="Group 2383" transform="translate(170.971 198.442)"><g id="Group_2382" data-name="Group 2382"><path id="Path_1736" d="M411.692 266.519a.646.646 0 001.265.262.646.646 0 00-1.265-.262z" class="cls-14" data-name="Path 1736" transform="translate(-411.676 -266.023)"/></g></g><g id="Group_2385" data-name="Group 2385" transform="translate(272.118 99.396)"><g id="Group_2384" data-name="Group 2384"><path id="Path_1737" d="M454.947 224.162a.646.646 0 001.265.262.646.646 0 00-1.265-.262z" class="cls-14" data-name="Path 1737" transform="translate(-454.931 -223.666)"/></g></g><g id="Group_2387" data-name="Group 2387" transform="translate(197.58 121.328)"><g id="Group_2386" data-name="Group 2386"><path id="Path_1738" d="M423.071 233.541a.648.648 0 001.267.262.648.648 0 00-1.267-.262z" class="cls-14" data-name="Path 1738" transform="translate(-423.055 -233.045)"/></g></g><g id="Group_2389" data-name="Group 2389" transform="translate(120.923 115.888)"><g id="Group_2388" data-name="Group 2388"><path id="Path_1739" d="M390.45 231.807a.646.646 0 00.942-.884.646.646 0 00-.942.884z" class="cls-14" data-name="Path 1739" transform="translate(-390.273 -230.719)"/></g></g><g id="Group_2391" data-name="Group 2391" transform="translate(207.499 179.371)"><g id="Group_2390" data-name="Group 2390"><path id="Path_1740" d="M427.313 258.363a.648.648 0 001.267.262.648.648 0 00-1.267-.262z" class="cls-14" data-name="Path 1740" transform="translate(-427.297 -257.867)"/></g></g><g id="Group_2393" data-name="Group 2393" transform="translate(126.507 69.11)"><g id="Group_2392" data-name="Group 2392"><path id="Path_1741" d="M392.677 211.21a.647.647 0 001.265.264.647.647 0 00-1.265-.264z" class="cls-14" data-name="Path 1741" transform="translate(-392.661 -210.714)"/></g></g><g id="Group_2395" data-name="Group 2395" transform="translate(154.843 84.071)"><g id="Group_2394" data-name="Group 2394"><path id="Path_1742" d="M404.795 217.608a.646.646 0 001.265.262.646.646 0 00-1.265-.262z" class="cls-14" data-name="Path 1742" transform="translate(-404.779 -217.112)"/></g></g><g id="Group_2397" data-name="Group 2397" transform="translate(191.493 149.868)"><g id="Group_2396" data-name="Group 2396"><path id="Path_1743" d="M420.468 245.746a.647.647 0 001.265.264.647.647 0 00-1.265-.264z" class="cls-14" data-name="Path 1743" transform="translate(-420.452 -245.25)"/></g></g><g id="Group_2399" data-name="Group 2399" transform="translate(193.125 273.436)"><g id="Group_2398" data-name="Group 2398"><path id="Path_1744" d="M421.166 298.59a.646.646 0 001.265.262.646.646 0 00-1.265-.262z" class="cls-14" data-name="Path 1744" transform="translate(-421.15 -298.094)"/></g></g><g id="Group_2401" data-name="Group 2401" transform="translate(226.585 62.939)"><g id="Group_2400" data-name="Group 2400"><path id="Path_1745" d="M435.475 208.571a.647.647 0 001.267.262.647.647 0 00-1.267-.262z" class="cls-14" data-name="Path 1745" transform="translate(-435.459 -208.075)"/></g></g><g id="Group_2403" data-name="Group 2403" transform="translate(88.593 131.369)"><g id="Group_2402" data-name="Group 2402"><path id="Path_1746" d="M376.463 237.835a.646.646 0 001.265.262.646.646 0 00-1.265-.262z" class="cls-14" data-name="Path 1746" transform="translate(-376.447 -237.339)"/></g></g><g id="Group_2405" data-name="Group 2405" transform="translate(129.657 215.354)"><g id="Group_2404" data-name="Group 2404"><path id="Path_1747" d="M394.024 273.751a.647.647 0 001.267.262.647.647 0 00-1.267-.262z" class="cls-14" data-name="Path 1747" transform="translate(-394.008 -273.255)"/></g></g><g id="Group_2407" data-name="Group 2407" transform="translate(220.87 144.281)"><g id="Group_2406" data-name="Group 2406"><path id="Path_1748" d="M433.031 243.357a.646.646 0 001.265.262.646.646 0 00-1.265-.262z" class="cls-14" data-name="Path 1748" transform="translate(-433.015 -242.861)"/></g></g><g id="Group_2409" data-name="Group 2409" transform="translate(189.48 67.795)"><g id="Group_2408" data-name="Group 2408"><path id="Path_1749" d="M419.607 210.648a.648.648 0 001.267.262.648.648 0 00-1.267-.262z" class="cls-14" data-name="Path 1749" transform="translate(-419.591 -210.152)"/></g></g><g id="Group_2411" data-name="Group 2411" transform="translate(179.378 135.082)"><g id="Group_2410" data-name="Group 2410"><path id="Path_1750" d="M415.287 239.423a.646.646 0 001.265.262.646.646 0 00-1.265-.262z" class="cls-14" data-name="Path 1750" transform="translate(-415.271 -238.927)"/></g></g><g id="Group_2413" data-name="Group 2413" transform="translate(179.055 96.403)"><g id="Group_2412" data-name="Group 2412"><path id="Path_1751" d="M415.149 222.882a.647.647 0 001.267.262.647.647 0 00-1.267-.262z" class="cls-14" data-name="Path 1751" transform="translate(-415.133 -222.386)"/></g></g><g id="Group_2415" data-name="Group 2415" transform="translate(101.772 157.741)"><g id="Group_2414" data-name="Group 2414"><path id="Path_1752" d="M382.1 249.113a.647.647 0 001.265.264.647.647 0 00-1.265-.264z" class="cls-14" data-name="Path 1752" transform="translate(-382.083 -248.617)"/></g></g><g id="Group_2417" data-name="Group 2417" transform="translate(115.241 105.106)"><g id="Group_2416" data-name="Group 2416"><path id="Path_1753" d="M387.859 226.6a.646.646 0 001.265.262.646.646 0 00-1.265-.262z" class="cls-14" data-name="Path 1753" transform="translate(-387.843 -226.108)"/></g></g><g id="Group_2419" data-name="Group 2419" transform="translate(178.894 247.198)"><g id="Group_2418" data-name="Group 2418"><path id="Path_1754" d="M415.08 287.369a.648.648 0 001.267.264.648.648 0 00-1.267-.264z" class="cls-14" data-name="Path 1754" transform="translate(-415.064 -286.873)"/></g></g><g id="Group_2421" data-name="Group 2421" transform="translate(147.146 245.282)"><g id="Group_2420" data-name="Group 2420"><path id="Path_1755" d="M401.5 286.55a.648.648 0 001.267.262.648.648 0 00-1.267-.262z" class="cls-14" data-name="Path 1755" transform="translate(-401.487 -286.054)"/></g></g><g id="Group_2423" data-name="Group 2423" transform="translate(234.365 274.821)"><g id="Group_2422" data-name="Group 2422"><path id="Path_1756" d="M438.8 299.182a.646.646 0 001.265.262.646.646 0 00-1.265-.262z" class="cls-14" data-name="Path 1756" transform="translate(-438.786 -298.686)"/></g></g><g id="Group_2425" data-name="Group 2425" transform="translate(92.267 252.585)"><g id="Group_2424" data-name="Group 2424"><path id="Path_1757" d="M378.034 289.673a.646.646 0 001.265.262.646.646 0 00-1.265-.262z" class="cls-14" data-name="Path 1757" transform="translate(-378.018 -289.177)"/></g></g><g id="Group_2427" data-name="Group 2427" transform="translate(66.638 106.512)"><g id="Group_2426" data-name="Group 2426"><path id="Path_1758" d="M367.074 227.2a.648.648 0 001.267.262.648.648 0 00-1.267-.262z" class="cls-14" data-name="Path 1758" transform="translate(-367.058 -226.709)"/></g></g><g id="Group_2429" data-name="Group 2429" transform="translate(64.267 247.562)"><g id="Group_2428" data-name="Group 2428"><path id="Path_1759" d="M366.06 287.525a.647.647 0 001.265.264.647.647 0 00-1.265-.264z" class="cls-14" data-name="Path 1759" transform="translate(-366.044 -287.029)"/></g></g><g id="Group_2431" data-name="Group 2431" transform="translate(122.361 173.364)"><g id="Group_2430" data-name="Group 2430"><path id="Path_1760" d="M390.9 255.794a.647.647 0 001.265.264.647.647 0 00-1.265-.264z" class="cls-14" data-name="Path 1760" transform="translate(-390.888 -255.298)"/></g></g><g id="Group_2433" data-name="Group 2433" transform="translate(159.888 36.159)"><g id="Group_2432" data-name="Group 2432"><path id="Path_1761" d="M406.952 197.117a.647.647 0 001.265.264.647.647 0 00-1.265-.264z" class="cls-14" data-name="Path 1761" transform="translate(-406.936 -196.623)"/></g></g><g id="Group_2435" data-name="Group 2435" transform="translate(75.636 199.899)"><g id="Group_2434" data-name="Group 2434"><path id="Path_1762" d="M370.922 267.14a.647.647 0 001.265.264.647.647 0 00-1.265-.264z" class="cls-14" data-name="Path 1762" transform="translate(-370.906 -266.646)"/></g></g><g id="Group_2437" data-name="Group 2437" transform="translate(50.805 222.345)"><g id="Group_2436" data-name="Group 2436"><path id="Path_1763" d="M360.3 276.741a.647.647 0 001.267.262.647.647 0 00-1.267-.262z" class="cls-14" data-name="Path 1763" transform="translate(-360.287 -276.245)"/></g></g><g id="Group_2439" data-name="Group 2439" transform="translate(245.371 242.296)"><g id="Group_2438" data-name="Group 2438"><path id="Path_1764" d="M443.509 285.273a.648.648 0 001.267.264.648.648 0 00-1.267-.264z" class="cls-14" data-name="Path 1764" transform="translate(-443.493 -284.777)"/></g></g><g id="Group_2441" data-name="Group 2441" transform="translate(84.884 220.444)"><g id="Group_2440" data-name="Group 2440"><path id="Path_1765" d="M374.877 275.928a.646.646 0 001.265.262.646.646 0 00-1.265-.262z" class="cls-14" data-name="Path 1765" transform="translate(-374.861 -275.432)"/></g></g><g id="Group_2443" data-name="Group 2443" transform="translate(55.222 134.773)"><g id="Group_2442" data-name="Group 2442"><path id="Path_1766" d="M362.192 239.289a.647.647 0 001.265.264.647.647 0 00-1.265-.264z" class="cls-14" data-name="Path 1766" transform="translate(-362.176 -238.795)"/></g></g><g id="Group_2445" data-name="Group 2445" transform="translate(278.611 200.519)"><g id="Group_2444" data-name="Group 2444"><path id="Path_1767" d="M457.724 267.407a.646.646 0 001.265.262.646.646 0 00-1.265-.262z" class="cls-14" data-name="Path 1767" transform="translate(-457.708 -266.911)"/></g></g><g id="Group_2447" data-name="Group 2447" transform="translate(256.441 79.193)"><g id="Group_2446" data-name="Group 2446"><path id="Path_1768" d="M448.243 215.522a.646.646 0 001.265.262.646.646 0 00-1.265-.262z" class="cls-14" data-name="Path 1768" transform="translate(-448.227 -215.026)"/></g></g></g><g id="Group_2450" data-name="Group 2450" transform="translate(73.843 387.713)"><g id="Group_2449" data-name="Group 2449"><path id="Path_1769" d="M257.143 229.939a14.829 14.829 0 1118.637 9.615 14.829 14.829 0 01-18.637-9.615z" data-name="Path 1769" transform="translate(-256.437 -210.596)" fill="#fcd22f" fill-rule="evenodd"/></g></g><path id="Path_1770" d="M395.087 223.41a11.355 11.355 0 00-21.737-4.607 18.87 18.87 0 00-22.287 5.7 30.018 30.018 0 1019.448 29.955 18.878 18.878 0 0014.281-18.3c0-.5-.037-.994-.075-1.485a11.326 11.326 0 0010.37-11.263z" class="cls-14" data-name="Path 1770" transform="translate(-110.17 179.059)"/><g id="Group_2452" data-name="Group 2452" transform="translate(476.048 467.766)"><g id="Group_2451" data-name="Group 2451"><path id="Path_1771" d="M430.5 301.353a43.331 43.331 0 1154.458 28.1 43.332 43.332 0 01-54.458-28.1z" data-name="Path 1771" transform="translate(-428.439 -244.83)" fill="#ffb000" fill-rule="evenodd"/></g></g><g id="Group_2454" data-name="Group 2454" transform="translate(372.894 331.77)"><g id="Group_2453" data-name="Group 2453"><path id="Path_1772" d="M425.333 206.02a16.991 16.991 0 11-14.47-19.182 16.99 16.99 0 0114.47 19.182z" class="cls-15" data-name="Path 1772" transform="translate(-374.706 -186.672)"/><path id="Path_1773" d="M434.765 195.047a17.109 17.109 0 01.262 1.773c6.648 2.088 10.829 4.527 10.541 6.582-.482 3.44-13.209 4.5-28.432 2.366s-27.17-6.648-26.688-10.085c.285-2.039 4.894-3.232 11.755-3.428a15.366 15.366 0 01.718-1.644c-10.689-.187-18.174 1.328-18.578 4.216-.589 4.2 14.007 9.716 32.6 12.319s34.145 1.312 34.732-2.888c.406-2.907-6.475-6.445-16.91-9.211z" data-name="Path 1773" transform="translate(-384.326 -181.421)" fill="#89f7f7"/><path id="Path_1774" d="M431.629 195.85c.051.533.075 1.073.075 1.616 3.641 1.443 5.808 2.988 5.619 4.338-.4 2.832-10.885 3.7-23.426 1.948s-22.387-5.476-21.992-8.311c.187-1.331 2.626-2.224 6.442-2.619a15.889 15.889 0 01.484-1.539c-6.975.187-11.666 1.391-11.956 3.454-.484 3.461 11.542 8 26.863 10.151s28.131 1.08 28.617-2.38c.29-2.082-3.966-4.551-10.726-6.658z" class="cls-27" data-name="Path 1774" transform="translate(-380.932 -180.5)"/></g></g><g id="Group_2455" data-name="Group 2455" transform="translate(188.462 260.26)"><path id="Rectangle_1030" d="M0 0h36.576v64.047H0z" class="cls-15" data-name="Rectangle 1030" transform="rotate(33.215 13.281 73.1)"/><path id="Rectangle_1031" d="M0 0h36.576v64.047H0z" class="cls-14" data-name="Rectangle 1031" transform="rotate(33.21 13.95 70.807)"/><path id="Rectangle_1032" d="M0 0h36.576v64.047H0z" class="cls-15" data-name="Rectangle 1032" transform="rotate(33.214 15.984 64.037)"/><path id="Rectangle_1033" d="M0 0h3.115v64.047H0z" class="cls-15" data-name="Rectangle 1033" transform="rotate(-146.79 9.543 27.241)"/><path id="Rectangle_1034" d="M0 0h23.013v17.627H0z" class="cls-14" data-name="Rectangle 1034" transform="rotate(33.21 -12.108 66.788)"/></g><g id="Group_2456" data-name="Group 2456" transform="translate(102.712 434.505)"><path id="Rectangle_1035" d="M0 0h40.242v56.897H0z" class="cls-16" data-name="Rectangle 1035" transform="rotate(-35.181 40.145 .307)"/><path id="Rectangle_1036" d="M0 0h40.242v56.897H0z" class="cls-14" data-name="Rectangle 1036" transform="rotate(-35.19 40.85 2.5)"/><path id="Rectangle_1037" d="M0 0h40.242v56.897H0z" class="cls-16" data-name="Rectangle 1037" transform="rotate(-35.18 42.923 9.067)"/><path id="Rectangle_1038" d="M0 0h3.2v56.897H0z" class="cls-16" data-name="Rectangle 1038" transform="rotate(144.818 6.145 42.057)"/><path id="Rectangle_1039" d="M0 0h26.309v18.107H0z" data-name="Rectangle 1039" transform="rotate(-35.181 57.6 -6.484)" fill="#f4f6ff"/></g><g id="Group_2460" data-name="Group 2460" transform="translate(258.482 352.069)"><g id="Group_2458" data-name="Group 2458" transform="translate(0 6.581)"><g id="Group_2457" data-name="Group 2457" transform="translate(20.139 32.528)"><path id="Path_1775" d="M382.93 229.8c-2.85 2.956-7 4.186-10.955 5.3l-23.9 6.732c-1.258.353-2.843.615-3.674-.4-1.153-1.4.442-3.388 1.962-4.377a36.613 36.613 0 018.166-3.964 5.317 5.317 0 002.46-1.321 4.618 4.618 0 00.846-2.5 33.159 33.159 0 00-.428-10.518c4.534-1.908 15.422-8.051 20.374-6.4 2.884.959 7.125 15.403 5.149 17.448z" class="cls-29" data-name="Path 1775" transform="translate(-344.009 -212.077)"/><path id="Path_1776" d="M369.867 212.355c-2.743-.912-7.3.566-11.6 2.387a1363.856 1363.856 0 00-8.126 10.013 33.311 33.311 0 01-.217 4.478l25.526-2.86c-.486-4.966-3.42-13.3-5.583-14.018z" data-name="Path 1776" transform="translate(-336.092 -212.077)" fill="url(#linear-gradient-2)" opacity=".4"/></g><path id="Path_1777" d="M362 198.233c-3.868 1.387-6.69 4.667-9.328 7.817q-7.973 9.516-15.943 19.032c-.839 1-1.73 2.341-1.148 3.512.807 1.625 3.271.987 4.8 0a36.4 36.4 0 006.964-5.82 5.319 5.319 0 012.214-1.7 4.629 4.629 0 012.628.253 33.3 33.3 0 019.414 4.7c3.6-3.351 13.67-10.759 14.2-15.95.311-3.012-11.119-12.805-13.801-11.844z" class="cls-15" data-name="Path 1777" transform="translate(-335.397 -198.167)"/></g><path id="Path_1778" d="M360.284 219.392c4.441-3.779 11.051-9.4 11.479-13.577.1-.975-1.029-2.659-2.687-4.457l-25.2 6.094-5.465 6.524c1.134 1.995 2.46 4.239 3.564 5.869.451-.435.9-.877 1.326-1.338a5.319 5.319 0 012.214-1.7 4.63 4.63 0 012.628.253 33.266 33.266 0 017.071 3.173c1.675-.271 3.396-.554 5.07-.841z" data-name="Path 1778" transform="translate(-331.357 -187.315)" fill="url(#linear-gradient-3)" opacity=".4"/><g id="Group_2459" data-name="Group 2459" transform="translate(14.343)"><path id="Path_1779" d="M351.361 250.224c26.826-4.26 51.175-21.106 66.265-43.72a7.085 7.085 0 00.83-6.349c-.03-.077-.058-.154-.089-.231a7.4 7.4 0 00-6.821-4.565c-26.863-.376-56.474 16.413-70.015 39.663 2.479 5.341 7.036 10.02 9.83 15.202z" class="cls-14" data-name="Path 1779" transform="translate(-341.531 -195.352)"/><path id="Path_1780" d="M370.74 220.08c19.878-21.059 35.962-22.766 45.43-23.091a7.651 7.651 0 00-4.623-1.63c-26.863-.376-56.474 16.413-70.015 39.663a43.724 43.724 0 004.279 6.94c6.299-5.027 15.089-11.455 24.929-21.882z" data-name="Path 1780" transform="translate(-341.531 -195.352)" fill="url(#linear-gradient-4)"/><path id="Path_1781" d="M366.376 212.782l3.033-4.967-25.1 6.173q-1.477 2.136-2.776 4.354a44.955 44.955 0 004.462 7.193z" data-name="Path 1781" transform="translate(-341.531 -178.673)" fill="url(#linear-gradient-5)"/><path id="Path_1782" d="M377.5 201.666a8.3 8.3 0 11-11.47-2.462 8.3 8.3 0 0111.47 2.462z" data-name="Path 1782" transform="translate(-313.818 -191.977)" fill="url(#linear-gradient-6)"/><path id="Path_1783" d="M377.925 201.77a8.295 8.295 0 11-11.47-2.46 8.294 8.294 0 0111.47 2.46z" class="cls-15" data-name="Path 1783" transform="translate(-313.246 -191.837)"/><path id="Path_1784" d="M375.88 201.728a6.846 6.846 0 11-9.468-2.032 6.85 6.85 0 019.468 2.032z" class="cls-27" data-name="Path 1784" transform="translate(-312.417 -191.008)"/><path id="Path_1785" d="M378.943 213.785l-33.859 9.227c.245.376.482.758.713 1.136l.119.2c.239.4.47.8.69 1.207a93.341 93.341 0 0032.384-11.762z" data-name="Path 1785" transform="translate(-336.776 -170.683)" fill="url(#linear-gradient-7)"/><path id="Path_1786" d="M378.917 201.2c-3.814.835-10.932 2.411-16.03 3.653a8.29 8.29 0 0016.03-3.653z" data-name="Path 1786" transform="translate(-312.947 -187.531)" fill="url(#linear-gradient-8)"/></g><path id="Path_1787" d="M343.544 228.545l-4.572 3.646a2.273 2.273 0 00-.493 3.012 2.273 2.273 0 002.988.767l33.708-18.16a5.71 5.71 0 002.193-7.953 5.707 5.707 0 00-8.458-1.534l-5.411 4.314" class="cls-29" data-name="Path 1787" transform="translate(-331.759 -179.662)"/></g><g id="Group_2461" data-name="Group 2461" transform="translate(352.718 445.078)"><path id="Rectangle_1040" d="M0 0h36.576v64.047H0z" class="cls-15" data-name="Rectangle 1040" transform="rotate(-49.83 31.83 10.225)"/><path id="Rectangle_1041" d="M0 0h36.576v64.047H0z" class="cls-14" data-name="Rectangle 1041" transform="rotate(-49.83 32.505 11.68)"/><path id="Rectangle_1042" d="M0 0h36.576v64.047H0z" data-name="Rectangle 1042" transform="rotate(-49.83 34.532 16.046)" fill="#2addff"/><path id="Rectangle_1043" d="M0 0h23.013v17.627H0z" class="cls-14" data-name="Rectangle 1043" transform="rotate(-49.826 47.557 1.991)"/></g><g id="Group_2462" data-name="Group 2462" transform="translate(404.59 218.202)"><path id="Path_1788" d="M465.585 176.138l-59.453-37.65-7.581 11.97L458 188.108a7.083 7.083 0 009.774-2.2 7.082 7.082 0 00-2.189-9.77z" class="cls-29" data-name="Path 1788" transform="translate(-396.983 -137.591)"/><path id="Path_1789" d="M425.482 150.741l-19.35-12.253-7.581 11.97 19.35 12.253a7.084 7.084 0 007.581-11.97z" class="cls-14" data-name="Path 1789" transform="translate(-396.983 -137.591)"/><path id="Path_1790" d="M398.967 148.988l21.618 13.691a5.8 5.8 0 007.77-1.328 5.675 5.675 0 00-1.536-8.142l-19.35-12.253-2.437-1.543a.711.711 0 01-.22-.977.706.706 0 01.977-.22l21.581 13.668a7.247 7.247 0 012.64 9.5 7.085 7.085 0 01-10.015 2.6l-21.787-13.8a.711.711 0 01-.22-.977.709.709 0 01.979-.219z" class="cls-29" data-name="Path 1790" transform="translate(-397.88 -138.105)"/><path id="Rectangle_1044" d="M0 0h33.15v3.25H0z" data-name="Rectangle 1044" transform="rotate(-147.67 37.755 13.262)" fill="#f7f5ef"/></g></g></g><g id="Group_2465" data-name="Group 2465" transform="translate(175.829 354.746)"><path id="Path_1791" d="M171.733 214.307a5.217 5.217 0 01-5.217-5.217v-15.651h10.434v15.651a5.217 5.217 0 01-5.217 5.217z" class="cls-18" data-name="Path 1791" transform="translate(-148.473 -155.8)"/><path id="Path_1792" d="M179.4 177.491a23.243 23.243 0 00-8.161 43.671 6.025 6.025 0 013.255 4.541l.1.767a3.733 3.733 0 003.706 3.269h7.558a3.82 3.82 0 003.744-3.685 6.056 6.056 0 013.316-4.906 23.247 23.247 0 00-13.518-43.657z" class="cls-39" data-name="Path 1792" transform="translate(-158.8 -177.343)"/></g><g id="Group_2466" data-name="Group 2466" transform="translate(221.153 347.827)"><path id="Path_1793" d="M181.045 184.4a1.862 1.862 0 011.129-2.38l6.669-2.376a1.862 1.862 0 012.38 1.129 1.863 1.863 0 01-1.129 2.38l-6.669 2.376a1.86 1.86 0 01-2.38-1.129z" class="cls-39" data-name="Path 1793" transform="translate(-174.497 -167.489)"/><path id="Path_1794" d="M181.054 185.173a1.86 1.86 0 012.6-.435l5.766 4.111a1.864 1.864 0 01.435 2.6 1.864 1.864 0 01-2.6.435l-5.764-4.111a1.864 1.864 0 01-.437-2.6z" class="cls-39" data-name="Path 1794" transform="translate(-174.802 -160.991)"/><path id="Path_1795" d="M179.556 184.874a1.862 1.862 0 002.287-1.307l1.866-6.83a1.862 1.862 0 00-1.3-2.287 1.864 1.864 0 00-2.289 1.3l-1.866 6.83a1.863 1.863 0 001.302 2.294z" class="cls-39" data-name="Path 1795" transform="translate(-178.183 -174.384)"/></g><g id="Group_2467" data-name="Group 2467" transform="translate(161.479 347.119)"><path id="Path_1796" d="M162.85 184.021a1.863 1.863 0 01-2.481.884l-6.4-3.035a1.865 1.865 0 01-.884-2.483 1.863 1.863 0 012.481-.884l6.4 3.035a1.865 1.865 0 01.884 2.483z" class="cls-39" data-name="Path 1796" transform="translate(-152.337 -168.405)"/><path id="Path_1797" d="M161.36 184.765a1.864 1.864 0 01-2.147-1.529l-1.169-6.982a1.864 1.864 0 011.529-2.147 1.866 1.866 0 012.147 1.529l1.169 6.985a1.862 1.862 0 01-1.529 2.144z" class="cls-39" data-name="Path 1797" transform="translate(-145.497 -174.081)"/><path id="Path_1798" d="M162.294 184.8a1.864 1.864 0 00-2.542-.695l-6.15 3.51a1.864 1.864 0 00-.695 2.542 1.864 1.864 0 002.542.695l6.15-3.51a1.864 1.864 0 00.695-2.542z" class="cls-39" data-name="Path 1798" transform="translate(-152.663 -160.988)"/></g></g></g></svg>