<svg xmlns="http://www.w3.org/2000/svg" width="423.414" height="246.72"><defs><linearGradient id="linear-gradient" x1=".5" x2=".5" y2="1" gradientUnits="objectBoundingBox"><stop offset="0" stop-color="#2addff"/><stop offset="1" stop-color="#0e8efd"/></linearGradient><style>.cls-2{fill:#fcd22f;opacity:.77}.cls-3{fill:#0b4870}.cls-10,.cls-7{fill:#0e8efd}.cls-6{fill:url(#linear-gradient)}.cls-8{fill:#f2f2f2}.cls-10,.cls-11{opacity:.1}.cls-11{fill:none;stroke:#6c63ff;stroke-miterlimit:10;stroke-width:3px}.cls-12{fill:#fab9af}.cls-13{fill:#404040}</style></defs><g id="Group_2217" data-name="Group 2217" transform="translate(-122 -589.255)"><g id="task" transform="translate(122 624.841)"><g id="Group_2201" data-name="Group 2201"><path id="Path_1264" d="M598.184 627.228c-.826.011-5.908-6.783-6.882-7.724-7.96-7.7-12.735-16.165-16.324-25.372-2.735-7.019-4.776-14.475-7-22.341-1.5-5.306-3.928-11.236-9.18-12.91-5.109-1.625-10.613 1.745-13.753 6.089s-4.727 9.612-7.412 14.25c-4.874 8.408-13.5 11.931-20.635 4.541-10.186-10.558-14.776-24.956-21.236-37.834-4.688-9.349-8.616-20.3-14.524-28.917-9.01-13.14-21.368-24.349-37.8-24.349-10.416 1.576-19.59 10.8-25.8 22.33s-9.836 25.241-12.921 38.917c-2.588 11.472-4.858 23.069-6.958 34.727-3.906-14.048-7.97-27.992-12.369-41.7-4.765-14.841-10.027-29.628-17.336-41.5s-16.986-20.635-26.7-20.574c-14.973 2.9-24.633 17.681-30.968 34.059-4.152 10.739-6.165 23.747-9.108 35.093-4.048 15.629-6.171 32.631-13.95 46.313-5.443 9.573-13.813 7.133-19.453-1.472-3.113-4.748-5.306-10.394-8.791-14.726s-8.983-7.155-13.4-4.426c-4.546 2.806-5.908 9.912-6.521 16.143-.908 9.25-1.7 17.992-3.195 26.373q-.484 2.741-1.083 5.421H391.2c-.109.667-.219 1.34-.323 2.008z" data-name="Path 1264" transform="translate(-190.088 -439.48)" opacity=".31" fill="#d0e8ff"/><path id="Path_1265" d="M760.477 665.325c-.4 8.058-9.174 22.144-17.232 21.74s-12.358-15.153-11.948-23.211 8.988-48.386 17.046-47.976 12.539 41.389 12.134 49.447z" class="cls-2" data-name="Path 1265" transform="translate(-414.93 -498.824)"/><g id="Group_2144" data-name="Group 2144" transform="translate(328.752 122.079)"><path id="Path_1266" d="M754.167 690.8h-.011a.209.209 0 01-.2-.224l4.065-65.306a.2.2 0 01.224-.2.209.209 0 01.2.224L754.38 690.6a.218.218 0 01-.213.2z" class="cls-3" data-name="Path 1266" transform="translate(-753.958 -625.067)"/></g><path id="Path_1267" d="M747.248 680.993a56 56 0 00-4.076 12.67c-.427 2.232-.7 4.655.312 6.7a8.016 8.016 0 006.006 3.928c5.99.985 11.98-2.686 15.492-7.637s5.033-11.007 6.428-16.909c1.1-4.65 2.177-9.371 4.251-13.7.886-1.86 6.089-9.032 3.627-10.892-3.364-2.642-13.1.23-19.338 7.046a72.5 72.5 0 00-12.702 18.794z" data-name="Path 1267" transform="translate(-420.147 -516.171)" fill="#0e8efd" opacity=".77"/><g id="Group_2145" data-name="Group 2145" transform="translate(329.129 143.6)"><path id="Path_1268" d="M754.863 709.13a.206.206 0 01-.055-.005.213.213 0 01-.153-.257c.071-.284 7.451-28.4 24.754-44.4a.214.214 0 01.3.011.21.21 0 01-.011.3c-17.216 15.919-24.557 43.917-24.628 44.2a.206.206 0 01-.207.151z" class="cls-3" data-name="Path 1268" transform="translate(-754.649 -664.407)"/></g><path id="Path_1269" d="M815.841 687.913a7.028 7.028 0 01-2.834 2.456c-1.3.733-2.681 1.373-4.021 2a46.519 46.519 0 00-5.131 2.653 17.355 17.355 0 00-3.146 2.505 39.838 39.838 0 014.989-8.479c2.549-3.282 5.164-4.945 7.784-4.945.06 0 .12 0 .181.005a2.927 2.927 0 011.871.6 2.658 2.658 0 01.307 3.205z" class="cls-2" data-name="Path 1269" transform="translate(-446.383 -529.727)"/><path id="Path_1270" d="M818.984 720.138a7.094 7.094 0 01-3.61 1.012c-1.488.1-3.014.093-4.486.088a46.426 46.426 0 00-5.771.2 17.537 17.537 0 00-3.917.919 39.637 39.637 0 018.135-5.531c3.709-1.876 6.783-2.259 9.152-1.138l.164.082a2.936 2.936 0 011.439 1.34 2.669 2.669 0 01-1.106 3.028z" class="cls-2" data-name="Path 1270" transform="translate(-446.605 -543.752)"/><path id="Path_1271" d="M812.925 734.727a4.85 4.85 0 01-2.27-1.193c-.788-.645-1.543-1.362-2.27-2.062a32.231 32.231 0 00-2.965-2.6 11.783 11.783 0 00-2.38-1.378 27.151 27.151 0 016.641 1.061c2.724.8 4.431 2.057 5.082 3.72.016.038.027.076.044.115a2.034 2.034 0 01.088 1.34 1.82 1.82 0 01-1.97.997z" class="cls-2" data-name="Path 1271" transform="translate(-447.438 -549.381)"/><g id="Group_2146" data-name="Group 2146" transform="translate(345.667 156.206)"><path id="Path_1272" d="M785.093 719.732a.225.225 0 01-.213-.213c0-.175.323-17.505 21.209-32.03a.212.212 0 11.241.35c-20.706 14.4-21.028 31.51-21.028 31.679a.206.206 0 01-.209.214z" class="cls-3" data-name="Path 1272" transform="translate(-784.88 -687.451)"/></g><g id="Group_2147" data-name="Group 2147" transform="translate(345.664 174.22)"><path id="Path_1273" d="M785.09 734.647a.193.193 0 01-.093-.022.212.212 0 01-.1-.284 26.925 26.925 0 0124.163-13.961.213.213 0 110 .427 26.478 26.478 0 00-23.775 13.714.209.209 0 01-.195.126z" class="cls-3" data-name="Path 1273" transform="translate(-784.873 -720.38)"/></g><g id="Group_2148" data-name="Group 2148" transform="translate(355.197 178.067)"><path id="Path_1274" d="M812.984 732.936a.219.219 0 01-.126-.044c-6.9-5.208-10.3-5.055-10.328-5.049a.214.214 0 01-.23-.2.222.222 0 01.2-.23c.142-.016 3.55-.191 10.618 5.137a.216.216 0 01.044.3.242.242 0 01-.178.086z" class="cls-3" data-name="Path 1274" transform="translate(-802.3 -727.412)"/></g><g id="Group_2153" data-name="Group 2153" transform="translate(39.146 110.553)"><path id="Path_1275" d="M295.051 656.494c-3.036-3.507-6.882-6.526-8.1-10.952-.886-3.233-.186-6.652.159-9.984s.224-7.019-1.931-9.579c-1.778-2.112-4.584-3.031-7.281-3.611s-5.514-.946-7.91-2.319c-3.89-2.232-3.113-6.023-5.2-9.349-2.341-3.731-7.8-8.5-12.467-6.018-4.945 2.626-4.163 10.6-.875 14.114 2.183 2.336 4.978 4.573 5.3 7.757.481 4.787-5 9.1-3.5 13.671 1.116 3.375 5.367 4.535 7.473 7.4 2.079 2.839 1.658 6.811.438 10.109s-3.151 6.346-3.911 9.776c-1.559 7.024 3.955 11.876 10.235 13.446 5.771 1.439 18.217.76 18.217.76A23.815 23.815 0 00297.513 672a12.375 12.375 0 00.673-10.733 17.954 17.954 0 00-3.135-4.773z" data-name="Path 1275" transform="translate(-235.537 -603.998)" fill="#fcd22f"/><g id="Group_2149" data-name="Group 2149" transform="translate(22.104 8.046)"><path id="Path_1276" d="M288.742 688.412a.215.215 0 01-.213-.2c-2.281-35.979-23.315-68.846-23.528-69.174a.214.214 0 11.361-.23c.213.328 21.307 33.293 23.6 69.376a.213.213 0 01-.2.224.041.041 0 01-.02.004z" class="cls-3" data-name="Path 1276" transform="translate(-264.965 -618.705)"/></g><path id="Path_1277" d="M230.324 699.669a2.234 2.234 0 011.417-.449h.137c1.975 0 3.955 1.258 5.886 3.736a30.071 30.071 0 013.769 6.411 12.8 12.8 0 00-2.38-1.893 35.692 35.692 0 00-3.879-2.008c-1.012-.47-2.057-.957-3.036-1.51a5.378 5.378 0 01-2.144-1.86 2.01 2.01 0 01.23-2.427z" class="cls-6" data-name="Path 1277" transform="translate(-226.932 -647.129)"/><path id="Path_1278" d="M224.68 724.169a2.226 2.226 0 011.089-1.012c.038-.022.082-.038.12-.06 1.789-.848 4.114-.558 6.92.859a30.1 30.1 0 016.154 4.185 13.016 13.016 0 00-2.96-.695 34.4 34.4 0 00-4.365-.153c-1.116.005-2.27.016-3.392-.066a5.355 5.355 0 01-2.73-.766 2 2 0 01-.836-2.292z" class="cls-6" data-name="Path 1278" transform="translate(-224.559 -657.73)"/><path id="Path_1279" d="M233.05 736.746a1.5 1.5 0 01.066-1.012l.033-.088c.492-1.258 1.783-2.2 3.846-2.812a20.522 20.522 0 015.022-.8 8.67 8.67 0 00-1.8 1.045 23.463 23.463 0 00-2.243 1.969c-.553.525-1.121 1.072-1.718 1.559a3.7 3.7 0 01-1.718.9 1.4 1.4 0 01-1.488-.761z" class="cls-6" data-name="Path 1279" transform="translate(-228.378 -661.991)"/><g id="Group_2150" data-name="Group 2150" transform="translate(4.804 53.421)"><path id="Path_1280" d="M249.522 726.164a.214.214 0 01-.213-.213c0-.131-.257-13.053-15.875-23.911a.212.212 0 11.241-.35c15.815 11 16.061 24.13 16.061 24.261a.21.21 0 01-.213.213z" class="cls-3" data-name="Path 1280" transform="translate(-233.341 -701.651)"/></g><g id="Group_2151" data-name="Group 2151" transform="translate(2.654 67.047)"><path id="Path_1281" d="M247.747 737.446a.2.2 0 01-.191-.12 19.985 19.985 0 00-17.932-10.339.213.213 0 110-.427 20.409 20.409 0 0118.315 10.585.212.212 0 01-.1.284.5.5 0 01-.092.017z" class="cls-3" data-name="Path 1281" transform="translate(-229.41 -726.56)"/></g><g id="Group_2152" data-name="Group 2152" transform="translate(5.651 69.945)"><path id="Path_1282" d="M235.1 736.142a.2.2 0 01-.17-.087.212.212 0 01.044-.3c5.356-4.043 7.954-3.9 8.063-3.9a.214.214 0 01.2.23.211.211 0 01-.23.2c-.027 0-2.577-.109-7.774 3.807a.189.189 0 01-.133.05z" class="cls-3" data-name="Path 1282" transform="translate(-234.89 -731.857)"/></g></g><g id="Group_2154" data-name="Group 2154" transform="translate(127.665 13.068)"><path id="Path_1283" d="M485 505.453H368.291a4.665 4.665 0 01-4.661-4.661V343.721a4.665 4.665 0 014.661-4.661h34.883v1.277h-34.883a3.39 3.39 0 00-3.384 3.384v157.07a3.39 3.39 0 003.384 3.384H485a3.39 3.39 0 003.384-3.384v-157.07a3.39 3.39 0 00-3.384-3.384h-34.875v-1.277H485a4.665 4.665 0 014.661 4.661v157.07a4.668 4.668 0 01-4.661 4.662z" class="cls-7" data-name="Path 1283" transform="translate(-363.63 -339.06)"/></g><path id="Path_1284" d="M490.773 508.337H383.8a1.644 1.644 0 01-1.643-1.643V360.1a1.644 1.644 0 011.643-1.643h106.97a1.644 1.644 0 011.643 1.643v146.594a1.644 1.644 0 01-1.64 1.643z" class="cls-8" data-name="Path 1284" transform="translate(-246.607 -337.134)"/><g id="Group_2155" data-name="Group 2155" transform="translate(166.648)"><path id="Path_1285" d="M503.276 334.036H455.21v-15.728h13.915a10.12 10.12 0 0120.236 0h13.915zm-46.789-1.277H502v-13.174h-13.97l.043-.843c0-.085.013-.175.013-.264a8.841 8.841 0 00-17.682 0c0 .089.008.179.013.264l.043.843h-13.97v13.174z" class="cls-7" data-name="Path 1285" transform="translate(-455.21 -308.36)"/></g><g id="Group_2156" data-name="Group 2156" transform="translate(184.717 4.154)"><path id="Path_1286" d="M503.624 330.047a5.964 5.964 0 115.964-5.964 5.97 5.97 0 01-5.964 5.964zm0-10.646a4.687 4.687 0 104.687 4.687 4.692 4.692 0 00-4.687-4.688z" class="cls-7" data-name="Path 1286" transform="translate(-497.66 -318.12)"/></g><path id="Path_1287" d="M564.926 768.836H164.488A11.487 11.487 0 01153 757.348a11.487 11.487 0 0111.488-11.488h400.438a11.487 11.487 0 0111.488 11.488 11.487 11.487 0 01-11.488 11.488z" data-name="Path 1287" transform="translate(-153 -557.701)" fill="#d0e8ff"/><g id="Group_2197" data-name="Group 2197" transform="translate(148.052 48.449)"><g id="Group_2166" data-name="Group 2166"><g id="Group_2165" data-name="Group 2165"><g id="Group_2161" data-name="Group 2161"><path id="Path_1290" d="M562.79 423.568h-85.538c-.559 0-1.012-.311-1.012-.694 0-.383.453-.694 1.012-.694h85.538c.559 0 1.012.311 1.012.694-.002.383-.453.694-1.012.694z" class="cls-3" data-name="Path 1290" transform="translate(-476.24 -422.18)"/></g><g id="Group_2162" data-name="Group 2162" transform="translate(0 3.056)"><path id="Path_1291" d="M562.79 430.748h-85.538c-.559 0-1.012-.311-1.012-.694 0-.383.453-.694 1.012-.694h85.538c.559 0 1.012.311 1.012.694-.002.383-.453.694-1.012.694z" class="cls-3" data-name="Path 1291" transform="translate(-476.24 -429.36)"/></g><g id="Group_2163" data-name="Group 2163" transform="translate(0 6.108)"><path id="Path_1292" d="M562.79 437.918h-85.538c-.559 0-1.012-.311-1.012-.694 0-.383.453-.694 1.012-.694h85.538c.559 0 1.012.311 1.012.694-.002.383-.453.694-1.012.694z" class="cls-3" data-name="Path 1292" transform="translate(-476.24 -436.53)"/></g><g id="Group_2164" data-name="Group 2164" transform="translate(0 9.165)"><path id="Path_1293" d="M562.79 445.1h-85.538c-.559 0-1.012-.311-1.012-.694 0-.383.453-.694 1.012-.694h85.538c.559 0 1.012.311 1.012.694-.002.381-.453.694-1.012.694z" class="cls-3" data-name="Path 1293" transform="translate(-476.24 -443.71)"/></g></g></g><g id="Group_2176" data-name="Group 2176" transform="translate(0 28.967)"><g id="Group_2175" data-name="Group 2175"><g id="Group_2171" data-name="Group 2171"><path id="Path_1296" d="M562.79 491.618h-85.538c-.559 0-1.012-.311-1.012-.694 0-.383.453-.694 1.012-.694h85.538c.559 0 1.012.311 1.012.694-.002.383-.453.694-1.012.694z" class="cls-3" data-name="Path 1296" transform="translate(-476.24 -490.23)"/></g><g id="Group_2172" data-name="Group 2172" transform="translate(0 3.056)"><path id="Path_1297" d="M562.79 498.8h-85.538c-.559 0-1.012-.311-1.012-.694 0-.383.453-.694 1.012-.694h85.538c.559 0 1.012.311 1.012.694-.002.381-.453.694-1.012.694z" class="cls-3" data-name="Path 1297" transform="translate(-476.24 -497.41)"/></g><g id="Group_2173" data-name="Group 2173" transform="translate(0 6.108)"><path id="Path_1298" d="M562.79 505.968h-85.538c-.559 0-1.012-.311-1.012-.694 0-.383.453-.694 1.012-.694h85.538c.559 0 1.012.311 1.012.694-.002.383-.453.694-1.012.694z" class="cls-3" data-name="Path 1298" transform="translate(-476.24 -504.58)"/></g><g id="Group_2174" data-name="Group 2174" transform="translate(0 9.165)"><path id="Path_1299" d="M562.79 513.148h-85.538c-.559 0-1.012-.311-1.012-.694 0-.383.453-.694 1.012-.694h85.538c.559 0 1.012.311 1.012.694-.002.383-.453.694-1.012.694z" class="cls-3" data-name="Path 1299" transform="translate(-476.24 -511.76)"/></g></g></g><g id="Group_2186" data-name="Group 2186" transform="translate(0 57.933)"><g id="Group_2185" data-name="Group 2185"><g id="Group_2181" data-name="Group 2181"><path id="Path_1302" d="M562.79 559.668h-85.538c-.559 0-1.012-.311-1.012-.694 0-.383.453-.694 1.012-.694h85.538c.559 0 1.012.311 1.012.694-.002.383-.453.694-1.012.694z" class="cls-3" data-name="Path 1302" transform="translate(-476.24 -558.28)"/></g><g id="Group_2182" data-name="Group 2182" transform="translate(0 3.056)"><path id="Path_1303" d="M562.79 566.848h-85.538c-.559 0-1.012-.311-1.012-.694 0-.383.453-.694 1.012-.694h85.538c.559 0 1.012.311 1.012.694-.002.383-.453.694-1.012.694z" class="cls-3" data-name="Path 1303" transform="translate(-476.24 -565.46)"/></g><g id="Group_2183" data-name="Group 2183" transform="translate(0 6.108)"><path id="Path_1304" d="M562.79 574.018h-85.538c-.559 0-1.012-.311-1.012-.694 0-.383.453-.694 1.012-.694h85.538c.559 0 1.012.311 1.012.694-.002.383-.453.694-1.012.694z" class="cls-3" data-name="Path 1304" transform="translate(-476.24 -572.63)"/></g><g id="Group_2184" data-name="Group 2184" transform="translate(0 9.165)"><path id="Path_1305" d="M562.79 581.2h-85.538c-.559 0-1.012-.311-1.012-.694 0-.383.453-.694 1.012-.694h85.538c.559 0 1.012.311 1.012.694-.002.381-.453.694-1.012.694z" class="cls-3" data-name="Path 1305" transform="translate(-476.24 -579.81)"/></g></g></g><g id="Group_2196" data-name="Group 2196" transform="translate(0 86.9)"><g id="Group_2195" data-name="Group 2195"><g id="Group_2191" data-name="Group 2191"><path id="Path_1308" d="M562.79 627.718h-85.538c-.559 0-1.012-.311-1.012-.694 0-.383.453-.694 1.012-.694h85.538c.559 0 1.012.311 1.012.694-.002.383-.453.694-1.012.694z" class="cls-3" data-name="Path 1308" transform="translate(-476.24 -626.33)"/></g><g id="Group_2192" data-name="Group 2192" transform="translate(0 3.056)"><path id="Path_1309" d="M562.79 634.9h-85.538c-.559 0-1.012-.311-1.012-.694 0-.383.453-.694 1.012-.694h85.538c.559 0 1.012.311 1.012.694-.002.381-.453.694-1.012.694z" class="cls-3" data-name="Path 1309" transform="translate(-476.24 -633.51)"/></g><g id="Group_2193" data-name="Group 2193" transform="translate(0 6.108)"><path id="Path_1310" d="M562.79 642.068h-85.538c-.559 0-1.012-.311-1.012-.694 0-.383.453-.694 1.012-.694h85.538c.559 0 1.012.311 1.012.694-.002.383-.453.694-1.012.694z" class="cls-3" data-name="Path 1310" transform="translate(-476.24 -640.68)"/></g><g id="Group_2194" data-name="Group 2194" transform="translate(0 9.165)"><path id="Path_1311" d="M562.79 649.248h-85.538c-.559 0-1.012-.311-1.012-.694 0-.383.453-.694 1.012-.694h85.538c.559 0 1.012.311 1.012.694-.002.383-.453.694-1.012.694z" class="cls-3" data-name="Path 1311" transform="translate(-476.24 -647.86)"/></g></g></g></g></g></g><path id="Path_1562" d="M906.36 277.915a2.9 2.9 0 01-.523-1.614c0-3.5 7.14-6.341 15.948-6.341s15.949 2.84 15.949 6.341a3 3 0 01-.661 1.8c9.807 1.091 16.417 3.144 16.417 5.5 0 3.5-14.626 6.341-32.666 6.341S888.16 287.1 888.16 283.6c0-2.48 7.417-4.647 18.2-5.685z" class="cls-10" data-name="Path 1562" transform="translate(-477.275 376.978)"/><path id="Path_1563" d="M759.532 103.874a1.89 1.89 0 01-.337-1.041c0-2.257 4.6-4.083 10.269-4.083s10.272 1.82 10.272 4.083a1.933 1.933 0 01-.422 1.159c6.313.707 10.569 2.026 10.569 3.543 0 2.254-9.4 4.083-21.035 4.083s-21.038-1.82-21.038-4.083c0-1.608 4.778-2.994 11.722-3.661z" class="cls-10" data-name="Path 1563" transform="translate(-435.398 490.505)"/><path id="Path_1564" d="M302.753 158.453a2.272 2.272 0 01-.68-1.153c-.607-2.7 4.411-6.113 11.2-7.623s12.778-.552 13.378 2.148a2.378 2.378 0 01-.2 1.5c7.742-.84 13.187-.394 13.591 1.42.607 2.7-10.181 7.4-24.081 10.49s-25.655 3.422-26.256.722c-.428-1.919 4.927-4.85 13.048-7.504z" class="cls-10" data-name="Path 1564" transform="translate(-121.216 499.485)"/><path id="Path_1566" d="M411 260.455a1.133 1.133 0 00-1.38.413 3.285 3.285 0 00-.479 1.486c-.173 1.156-.3 2.478.479 3.337a10.878 10.878 0 00-8.964-7.241" class="cls-11" data-name="Path 1566" transform="translate(-165.258 353.54)"/><path id="Path_1567" d="M741.5 201.182a1.136 1.136 0 00-1.38.413 3.285 3.285 0 00-.479 1.49c-.173 1.153-.3 2.475.479 3.337a10.885 10.885 0 00-8.964-7.241" class="cls-11" data-name="Path 1567" transform="translate(-346.593 440.448)"/><g id="Group_2206" data-name="Group 2206" transform="translate(368.735 687.113)"><g id="Group_2199" data-name="Group 2199"><path id="Path_1312" d="M618.088 574.368c.824-.585 1.581-1.261 1.93-1.46a5.868 5.868 0 01.732-.224 2.925 2.925 0 001.258-.529l1.132-1.243a1.228 1.228 0 011.846-.276c.658.581.463 1.408-.191 2l-.776.883a5.062 5.062 0 00-1.074 1.772 7.5 7.5 0 01-3.063 2.975c-.717.43-1.8.125-3.225-.36-.7-.239-1.71-.816-.838-1.143.732-.272 2.931.32 3.9-1.706.048-.1.151-.364.052-.456-.294-.276-.945.349-1.379.548-.61.279-1.1.184-1.25-.04s.358-.322.946-.741z" class="cls-12" data-name="Path 1312" transform="translate(-615.482 -506.467)"/><path id="Path_1313" d="M661.181 455.211s-1.816 21.8-8.335 29.161c-3.927 4.434-13.534 12.038-15.759 13.781a.823.823 0 01-.974.026 7.21 7.21 0 01-.585-.456 6.726 6.726 0 01-.6-.632.983.983 0 01.029-1.305c2.493-2.71 12.273-13.45 13.465-16.274 1.364-3.239 3.714-22.363 5.872-25.131s6.295-3.376 6.887.83z" class="cls-7" data-name="Path 1313" transform="translate(-627.63 -431.76)"/><path id="Path_1314" d="M684.34 487.7l5.559-39.048 14.99-2.059 7.8 40.828z" class="cls-12" data-name="Path 1314" transform="translate(-659.022 -428.228)"/><path id="Path_1315" d="M697.215 720.631l-.015 4.4a9.6 9.6 0 00.36 2.647l.383 1.357a1.74 1.74 0 01-1.68 2.213c-3-.011-8.122 0-9.442 0a.43.43 0 01-.445-.36c-.11-1.283 3.6-2.147 6.4-3.228 2.129-.824 2.015-4.651 1.754-6.887a1.346 1.346 0 011.452-1.493 1.35 1.35 0 011.233 1.351z" class="cls-12" data-name="Path 1315" transform="translate(-660.308 -600.651)"/><path id="Path_1316" d="M758.729 717.75l1.515 5.034a2.177 2.177 0 00.3.625l1.074 1.6a1.816 1.816 0 01-.978 2.754s-2.169.761-4.4 1.5c-2.287.75-5.166.125-5.166-.482 0-1.342 1.25-.276 3.346-1.677.7-.471 1.427-.96 2.074-1.467 1.8-1.416.228-5-.875-7.015a1.236 1.236 0 01.835-1.8l.522-.11a1.518 1.518 0 011.753 1.038z" class="cls-12" data-name="Path 1316" transform="translate(-701.216 -599.006)"/><path id="Path_1317" d="M700.63 557.024l-16.616-1.394s-1.673 12.093 2.526 33.982c1.971 10.266 6.074 29.882 6.074 29.882a4.721 4.721 0 003.1.294s.313-8.652.5-17.973c.184-8.935.232-18.484.8-21.609 1.171-6.383 3.616-23.182 3.616-23.182z" class="cls-13" data-name="Path 1317" transform="translate(-658.608 -497.175)"/><path id="Path_1318" d="M716.082 553.062c-1.717 9.207-5.548 22.973 1.835 35.9s15.134 26.378 15.134 26.378a4.192 4.192 0 002.747-.96s-1.294-5.861-3.166-12.707c-2.14-7.832-4.85-17.042-4.078-21.844 1.449-9 3.111-20.988 2.607-26.812s-14.178-4.794-15.079.045z" class="cls-13" data-name="Path 1318" transform="translate(-677.49 -493.004)"/><path id="Path_1319" d="M682.747 486.7l6.133-38.056 14.994-2.059 8.056 40.184a1.383 1.383 0 01-1.1 1.633 96 96 0 01-17.061 1.633c-5.626 0-8.788-1.092-10.225-1.787a1.455 1.455 0 01-.797-1.548z" class="cls-8" data-name="Path 1319" transform="translate(-658.003 -428.228)"/><path id="Path_1320" d="M762.923 583.091c.228-.982.353-1.993.482-2.372a5.848 5.848 0 01.4-.655 2.884 2.884 0 00.592-1.228l.029-1.68c0-.813.393-1.427 1.2-1.427.879 0 1.279.75 1.177 1.625v1.177a5.05 5.05 0 00.368 2.041 7.525 7.525 0 01-.331 4.258c-.25.8-1.269 1.287-2.655 1.86-.68.283-1.824.518-1.386-.3.368-.688 2.408-1.7 1.8-3.861-.029-.107-.125-.375-.261-.379-.4-.011-.478.886-.673 1.324-.272.614-.7.864-.967.8s.06-.481.225-1.183z" class="cls-12" data-name="Path 1320" transform="translate(-708.503 -509.885)"/><path id="Path_1321" d="M727.5 449.341a23.584 23.584 0 001.434 8.034c1.831 5.041 4.581 14.571 2.945 22.969-2.349 12.093-5.376 16.98-1.456 19.8s11.435-1.883 11.652-3.453-1.463-20.822-3.364-29.165-7.236-20.337-7.236-20.337l-2.258.243a1.917 1.917 0 00-1.717 1.908z" class="cls-7" data-name="Path 1321" transform="translate(-686.313 -428.607)"/><path id="Path_1322" d="M736.807 447.606s13.06 17.557 13.034 27.385c-.015 5.923-2.191 17.98-2.706 20.76a.812.812 0 01-.713.662 6.875 6.875 0 01-.739.044 7.063 7.063 0 01-.868-.077.984.984 0 01-.842-1c.077-3.681.313-18.2-.666-21.113-1.121-3.335-12.005-19.226-12.218-22.734s2.493-6.692 5.718-3.927z" class="cls-7" data-name="Path 1322" transform="translate(-688.574 -428.207)"/><path id="Path_1323" d="M687 450.67a27.9 27.9 0 00-1.695 13.693c.908 8.074 3.008 32.662-4.339 36.375-2.327 1.177-7.641-4.03-7.641-5.964s1.772-8.4 3.453-14.277 5.729-29.213 5.729-29.213z" class="cls-7" data-name="Path 1323" transform="translate(-652.06 -430.808)"/><g id="Group_2198" data-name="Group 2198" transform="translate(27.385)"><path id="Path_1324" d="M705.11 403.3c3.346 0 4.6 2.383 4.659 6.788a8.912 8.912 0 01-1.316 4.328 3.265 3.265 0 00-.312 2.552l.735 2.486c.5 2.305-.6 3.574-2.214 4.033a3.138 3.138 0 01-2.46-.4 2.6 2.6 0 01-.746-2.673l.191-.71a1.761 1.761 0 00-1.265-2.2c-2.578-.562-2.945-3.25-3.637-7.42-.721-4.343 3.019-6.784 6.365-6.784z" class="cls-12" data-name="Path 1324" transform="translate(-695.458 -400.855)"/><path id="Path_1325" d="M691.821 397.161l1.919.585a3.808 3.808 0 002.166.015l3.831-1.11c2.32 0 6.155 1.309 5.67 4.659l-.427 2.368a2.125 2.125 0 01-1.919 1.735.75.75 0 01-1.474-.195A2.276 2.276 0 00699.8 403a8.356 8.356 0 00-4.074.029 4.466 4.466 0 01-5.736-3.681 5.01 5.01 0 01-.026-.529 1.56 1.56 0 011.857-1.658z" class="cls-13" data-name="Path 1325" transform="translate(-689.96 -396.65)"/><path id="Path_1326" d="M723.87 418.8c0 1.022.379 1.849 1.364 1.849s1.614-1.4 1.614-2.427-.632-1.272-1.614-1.272-1.364.831-1.364 1.85z" class="cls-12" data-name="Path 1326" transform="translate(-711.402 -409.486)"/></g></g><path id="Path_1327" d="M715.327 434.18s-2.5 3.434-5.607 2.971a1.672 1.672 0 01.8.809s2.954-.217 4.807-3.78z" data-name="Path 1327" transform="translate(-675.07 -420.381)" fill="#e8948b"/></g></g></svg>