<svg xmlns="http://www.w3.org/2000/svg" width="414.478" height="244.023"><defs><linearGradient id="linear-gradient" x1=".5" x2=".5" y2="1" gradientUnits="objectBoundingBox"><stop offset="0" stop-color="#2addff"/><stop offset="1" stop-color="#0e8efd"/></linearGradient><style>.cls-1,.cls-12,.cls-2{fill:#0e8efd}.cls-1,.cls-2{opacity:.1}.cls-2{stroke:#6c63ff;stroke-miterlimit:10;stroke-width:3px}.cls-5{fill:#404040}.cls-6{fill:#f2f2f2}.cls-7{fill:#ee4d4d}.cls-8{fill:#0b4870}.cls-9{fill:url(#linear-gradient)}.cls-11{fill:#fab9af}.cls-14{fill:#14365b}</style></defs><g id="Group_3280" data-name="Group 3280" transform="translate(-140.5 -313)"><g id="Group_3275" data-name="Group 3275" transform="translate(140.5 313)"><path id="Path_1562" d="M906.995 278.192a3 3 0 01-.541-1.67c0-3.623 7.389-6.562 16.5-6.562s16.5 2.939 16.5 6.562a3.11 3.11 0 01-.684 1.865c10.149 1.13 16.99 3.253 16.99 5.691 0 3.623-15.136 6.562-33.8 6.562s-33.8-2.939-33.8-6.562c0-2.569 7.675-4.812 18.835-5.886z" class="cls-1" data-name="Path 1562" transform="translate(-614.53 -210.267)"/><path id="Path_1563" d="M759.94 104.052a1.955 1.955 0 01-.348-1.077c0-2.336 4.759-4.226 10.627-4.226s10.63 1.884 10.63 4.226a2 2 0 01-.436 1.2c6.533.731 10.937 2.1 10.937 3.667 0 2.333-9.732 4.226-21.768 4.226s-21.771-1.884-21.771-4.226c-.001-1.664 4.943-3.099 12.129-3.79z" class="cls-1" data-name="Path 1563" transform="translate(-570.872 -98.75)"/><path id="Path_1564" d="M303.208 158.784a2.352 2.352 0 01-.7-1.193c-.628-2.794 4.565-6.326 11.587-7.889s13.223-.571 13.845 2.223a2.461 2.461 0 01-.2 1.554c8.012-.87 13.647-.408 14.064 1.469.628 2.791-10.536 7.654-24.92 10.856s-26.549 3.541-27.171.747c-.45-1.988 5.087-5.02 13.495-7.767z" class="cls-1" data-name="Path 1564" transform="translate(-253.733 -87.707)"/><path id="Path_1566" d="M411.365 260.525a1.172 1.172 0 00-1.428.427 3.4 3.4 0 00-.5 1.538c-.179 1.2-.314 2.565.5 3.453a11.257 11.257 0 00-9.277-7.494" class="cls-2" data-name="Path 1566" transform="translate(-299.625 -234.923)"/><path id="Path_1567" d="M741.865 201.252a1.176 1.176 0 00-1.428.427 3.4 3.4 0 00-.5 1.541c-.179 1.193-.314 2.562.5 3.453a11.264 11.264 0 00-9.277-7.494" class="cls-2" data-name="Path 1567" transform="translate(-481.898 -147.052)"/><path id="Path_2267" d="M558.5 632.191c-.736.011-5.263-7.02-6.13-7.993-7.09-7.971-11.344-16.729-14.541-26.256-2.436-7.263-4.254-14.98-6.237-23.12-1.34-5.491-3.5-11.628-8.177-13.36-4.551-1.681-9.454 1.806-12.251 6.3s-4.21 9.947-6.6 14.747c-4.342 8.7-12.026 12.347-18.381 4.7-9.073-10.926-13.162-25.826-18.917-39.152-4.176-9.675-7.675-21-12.938-29.925-8.026-13.6-19.034-25.2-33.667-25.2-9.278 1.63-17.45 11.181-22.986 23.109s-8.762 26.121-11.51 40.273c-2.3 11.871-4.327 23.873-6.2 35.937-3.479-14.538-7.1-28.968-11.018-43.149-4.244-15.359-8.932-30.661-15.442-42.951s-15.128-21.351-23.783-21.291c-13.337 3-21.943 18.3-27.586 35.246-3.7 11.113-5.492 24.575-8.113 36.316-3.606 16.174-5.5 33.769-12.426 47.927-4.849 9.907-12.3 7.382-17.328-1.523-2.773-4.914-4.727-10.756-7.831-15.24s-8-7.4-11.939-4.58c-4.049 2.9-5.263 10.258-5.809 16.706-.809 9.573-1.516 18.62-2.846 27.292q-.431 2.836-.965 5.61H374.13c-.1.691-.195 1.387-.288 2.078z" data-name="Path 2267" transform="translate(-162.39 -398.518)" opacity=".51" fill="#d0e8ff"/><ellipse id="Ellipse_55" cx="207.239" cy="7.97" data-name="Ellipse 55" rx="207.239" ry="7.97" transform="translate(0 228.082)" fill="#d0e8ff"/><g id="task" transform="translate(113.31 36.826)"><g id="Group_2201" data-name="Group 2201"><g id="Group_2154" data-name="Group 2154" transform="translate(0 13.523)"><path id="Path_1283" d="M489.23 511.253H368.453a4.828 4.828 0 01-4.823-4.824V343.883a4.828 4.828 0 014.823-4.823h36.1v1.322h-36.1a3.508 3.508 0 00-3.5 3.5v162.547a3.508 3.508 0 003.5 3.5H489.23a3.508 3.508 0 003.5-3.5V343.883a3.508 3.508 0 00-3.5-3.5h-36.09v-1.323h36.09a4.828 4.828 0 014.824 4.823v162.546a4.831 4.831 0 01-4.824 4.824z" class="cls-5" data-name="Path 1283" transform="translate(-363.63 -339.06)"/></g><path id="Path_1284" d="M494.559 513.561H383.86a1.7 1.7 0 01-1.7-1.7V360.16a1.7 1.7 0 011.7-1.7h110.7a1.7 1.7 0 011.7 1.7v151.7a1.7 1.7 0 01-1.701 1.701z" class="cls-6" data-name="Path 1284" transform="translate(-373.997 -336.391)"/><g id="Group_2155" data-name="Group 2155" transform="translate(40.341)"><path id="Path_1285" d="M504.952 334.931H455.21v-16.276h14.4a10.472 10.472 0 0120.942 0h14.4zm-48.42-1.322h47.1v-13.633h-14.459l.044-.872c0-.088.013-.181.013-.273a9.149 9.149 0 10-18.3 0c0 .092.009.185.013.273l.044.872h-14.455v13.634z" class="cls-5" data-name="Path 1285" transform="translate(-455.21 -308.36)"/></g><g id="Group_2156" data-name="Group 2156" transform="translate(59.041 4.299)"><path id="Path_1286" d="M503.831 330.463a6.171 6.171 0 116.169-6.172 6.179 6.179 0 01-6.169 6.172zm0-11.017a4.85 4.85 0 104.85 4.85 4.856 4.856 0 00-4.85-4.85z" class="cls-5" data-name="Path 1286" transform="translate(-497.66 -318.12)"/></g><g id="Group_2197" data-name="Group 2197" transform="translate(21.097 50.138)"><g id="Group_2166" data-name="Group 2166"><g id="Group_2165" data-name="Group 2165"><g id="Group_2161" data-name="Group 2161"><path id="Path_1290" d="M565.806 423.616h-88.518c-.578 0-1.048-.322-1.048-.718 0-.4.469-.718 1.048-.718h88.519c.578 0 1.048.322 1.048.718-.001.396-.47.718-1.049.718z" class="cls-5" data-name="Path 1290" transform="translate(-476.24 -422.18)"/></g><g id="Group_2162" data-name="Group 2162" transform="translate(0 3.163)"><path id="Path_1291" d="M565.806 430.8h-88.518c-.578 0-1.048-.322-1.048-.718 0-.4.469-.718 1.048-.718h88.519c.578 0 1.048.322 1.048.718-.001.392-.47.718-1.049.718z" class="cls-5" data-name="Path 1291" transform="translate(-476.24 -429.36)"/></g><g id="Group_2163" data-name="Group 2163" transform="translate(0 6.321)"><path id="Path_1292" d="M565.806 437.966h-88.518c-.578 0-1.048-.322-1.048-.718 0-.4.469-.718 1.048-.718h88.519c.578 0 1.048.322 1.048.718-.001.396-.47.718-1.049.718z" class="cls-5" data-name="Path 1292" transform="translate(-476.24 -436.53)"/></g><g id="Group_2164" data-name="Group 2164" transform="translate(0 9.484)"><path id="Path_1293" d="M565.806 445.146h-88.518c-.578 0-1.048-.322-1.048-.718 0-.4.469-.718 1.048-.718h88.519c.578 0 1.048.322 1.048.718-.001.396-.47.718-1.049.718z" class="cls-5" data-name="Path 1293" transform="translate(-476.24 -443.71)"/></g></g></g><g id="Group_2176" data-name="Group 2176" transform="translate(0 29.976)"><g id="Group_2175" data-name="Group 2175"><g id="Group_2171" data-name="Group 2171"><path id="Path_1296" d="M565.806 491.666h-88.518c-.578 0-1.048-.322-1.048-.718 0-.4.469-.718 1.048-.718h88.519c.578 0 1.048.322 1.048.718-.001.396-.47.718-1.049.718z" class="cls-5" data-name="Path 1296" transform="translate(-476.24 -490.23)"/></g><g id="Group_2172" data-name="Group 2172" transform="translate(0 3.163)"><path id="Path_1297" d="M565.806 498.846h-88.518c-.578 0-1.048-.322-1.048-.718 0-.4.469-.718 1.048-.718h88.519c.578 0 1.048.322 1.048.718-.001.396-.47.718-1.049.718z" class="cls-5" data-name="Path 1297" transform="translate(-476.24 -497.41)"/></g><g id="Group_2173" data-name="Group 2173" transform="translate(0 6.321)"><path id="Path_1298" d="M565.806 506.016h-88.518c-.578 0-1.048-.322-1.048-.718 0-.4.469-.718 1.048-.718h88.519c.578 0 1.048.322 1.048.718-.001.396-.47.718-1.049.718z" class="cls-5" data-name="Path 1298" transform="translate(-476.24 -504.58)"/></g><g id="Group_2174" data-name="Group 2174" transform="translate(0 9.484)"><path id="Path_1299" d="M565.806 513.2h-88.518c-.578 0-1.048-.322-1.048-.718 0-.4.469-.718 1.048-.718h88.519c.578 0 1.048.322 1.048.718-.001.392-.47.718-1.049.718z" class="cls-5" data-name="Path 1299" transform="translate(-476.24 -511.76)"/></g></g></g><g id="Group_2186" data-name="Group 2186" transform="translate(0 59.952)"><g id="Group_2185" data-name="Group 2185"><g id="Group_2181" data-name="Group 2181"><path id="Path_1302" d="M565.806 559.716h-88.518c-.578 0-1.048-.322-1.048-.718 0-.4.469-.718 1.048-.718h88.519c.578 0 1.048.322 1.048.718-.001.396-.47.718-1.049.718z" class="cls-5" data-name="Path 1302" transform="translate(-476.24 -558.28)"/></g><g id="Group_2182" data-name="Group 2182" transform="translate(0 3.163)"><path id="Path_1303" d="M565.806 566.9h-88.518c-.578 0-1.048-.322-1.048-.718 0-.4.469-.718 1.048-.718h88.519c.578 0 1.048.322 1.048.718-.001.392-.47.718-1.049.718z" class="cls-5" data-name="Path 1303" transform="translate(-476.24 -565.46)"/></g><g id="Group_2183" data-name="Group 2183" transform="translate(0 6.321)"><path id="Path_1304" d="M565.806 574.066h-88.518c-.578 0-1.048-.322-1.048-.718 0-.4.469-.718 1.048-.718h88.519c.578 0 1.048.322 1.048.718-.001.396-.47.718-1.049.718z" class="cls-5" data-name="Path 1304" transform="translate(-476.24 -572.63)"/></g><g id="Group_2184" data-name="Group 2184" transform="translate(0 9.484)"><path id="Path_1305" d="M565.806 581.246h-88.518c-.578 0-1.048-.322-1.048-.718 0-.4.469-.718 1.048-.718h88.519c.578 0 1.048.321 1.048.718-.001.396-.47.718-1.049.718z" class="cls-5" data-name="Path 1305" transform="translate(-476.24 -579.81)"/></g></g></g><g id="Group_2196" data-name="Group 2196" transform="translate(0 89.929)"><g id="Group_2195" data-name="Group 2195"><g id="Group_2191" data-name="Group 2191"><path id="Path_1308" d="M565.806 627.766h-88.518c-.578 0-1.048-.322-1.048-.718 0-.4.469-.718 1.048-.718h88.519c.578 0 1.048.322 1.048.718-.001.397-.47.718-1.049.718z" class="cls-5" data-name="Path 1308" transform="translate(-476.24 -626.33)"/></g><g id="Group_2192" data-name="Group 2192" transform="translate(0 3.163)"><path id="Path_1309" d="M565.806 634.946h-88.518c-.578 0-1.048-.322-1.048-.718 0-.4.469-.718 1.048-.718h88.519c.578 0 1.048.322 1.048.718-.001.396-.47.718-1.049.718z" class="cls-5" data-name="Path 1309" transform="translate(-476.24 -633.51)"/></g><g id="Group_2193" data-name="Group 2193" transform="translate(0 6.321)"><path id="Path_1310" d="M565.806 642.116h-88.518c-.578 0-1.048-.322-1.048-.718 0-.4.469-.718 1.048-.718h88.519c.578 0 1.048.322 1.048.718-.001.396-.47.718-1.049.718z" class="cls-5" data-name="Path 1310" transform="translate(-476.24 -640.68)"/></g><g id="Group_2194" data-name="Group 2194" transform="translate(0 9.484)"><path id="Path_1311" d="M565.806 649.3h-88.518c-.578 0-1.048-.322-1.048-.718 0-.4.469-.718 1.048-.718h88.519c.578 0 1.048.322 1.048.718-.001.392-.47.718-1.049.718z" class="cls-5" data-name="Path 1311" transform="translate(-476.24 -647.86)"/></g></g></g></g></g></g><g id="Group_3234" data-name="Group 3234" transform="translate(39.872 152.017)"><path id="Path_1275" d="M296.663 658.323c-3.142-3.629-7.122-6.754-8.379-11.334-.917-3.346-.192-6.884.164-10.332s.232-7.263-2-9.913c-1.84-2.185-4.744-3.136-7.535-3.736s-5.706-.979-8.186-2.4c-4.025-2.31-3.221-6.233-5.384-9.675-2.423-3.861-8.067-8.792-12.9-6.227-5.118 2.717-4.308 10.966-.906 14.606 2.259 2.417 5.152 4.733 5.486 8.027.5 4.953-5.174 9.414-3.617 14.147 1.155 3.493 5.554 4.693 7.733 7.659 2.151 2.938 1.715 7.048.453 10.462s-3.261 6.567-4.048 10.116c-1.613 7.269 4.093 12.29 10.592 13.915 5.972 1.489 18.852.787 18.852.787a24.645 24.645 0 0012.222-10.06 12.806 12.806 0 00.7-11.107 18.581 18.581 0 00-3.247-4.935z" class="cls-7" data-name="Path 1275" transform="translate(-235.075 -603.998)"/><g id="Group_2149" data-name="Group 2149" transform="translate(22.874 8.326)"><path id="Path_1276" d="M289.571 690.842a.223.223 0 01-.221-.209c-2.36-37.233-24.127-71.246-24.35-71.586a.221.221 0 11.374-.238c.221.34 22.05 34.454 24.422 71.795a.22.22 0 01-.2.232.043.043 0 01-.025.006z" class="cls-8" data-name="Path 1276" transform="translate(-264.965 -618.705)"/></g><path id="Path_1277" d="M230.342 699.684a2.312 2.312 0 011.466-.464h.142c2.044 0 4.093 1.3 6.091 3.867a31.12 31.12 0 013.9 6.635 13.249 13.249 0 00-2.463-1.959 36.937 36.937 0 00-4.014-2.078c-1.047-.487-2.129-.991-3.142-1.562a5.565 5.565 0 01-2.222-1.923 2.08 2.08 0 01.242-2.516z" class="cls-9" data-name="Path 1277" transform="translate(-226.832 -645.313)"/><path id="Path_1278" d="M224.684 724.223a2.3 2.3 0 011.127-1.047c.04-.023.085-.04.125-.062 1.851-.878 4.257-.578 7.161.889a31.153 31.153 0 016.369 4.331 13.472 13.472 0 00-3.063-.719 35.6 35.6 0 00-4.518-.158c-1.155.006-2.349.017-3.51-.068a5.543 5.543 0 01-2.825-.792 2.075 2.075 0 01-.866-2.374z" class="cls-9" data-name="Path 1278" transform="translate(-224.559 -655.467)"/><path id="Path_1279" d="M233.052 736.91a1.556 1.556 0 01.068-1.047l.034-.091c.509-1.3 1.846-2.281 3.98-2.91a21.236 21.236 0 015.2-.832 8.978 8.978 0 00-1.863 1.081 24.308 24.308 0 00-2.321 2.038c-.572.544-1.161 1.11-1.778 1.613a3.829 3.829 0 01-1.778.934 1.446 1.446 0 01-1.542-.786z" class="cls-9" data-name="Path 1279" transform="translate(-228.217 -659.549)"/><g id="Group_2150" data-name="Group 2150" transform="translate(4.972 55.283)"><path id="Path_1280" d="M250.086 727.018a.221.221 0 01-.221-.221c0-.136-.266-13.508-16.429-24.745a.22.22 0 11.249-.362c16.366 11.379 16.621 24.971 16.621 25.107a.217.217 0 01-.221.221z" class="cls-8" data-name="Path 1280" transform="translate(-233.341 -701.651)"/></g><g id="Group_2151" data-name="Group 2151" transform="translate(2.746 69.384)"><path id="Path_1281" d="M248.386 737.826a.212.212 0 01-.2-.125A20.681 20.681 0 00229.631 727a.221.221 0 110-.442 21.121 21.121 0 0118.953 10.954.219.219 0 01-.108.294.515.515 0 01-.09.02z" class="cls-8" data-name="Path 1281" transform="translate(-229.41 -726.56)"/></g><g id="Group_2152" data-name="Group 2152" transform="translate(5.848 72.383)"><path id="Path_1282" d="M235.111 736.291a.21.21 0 01-.175-.09.22.22 0 01.045-.311c5.542-4.184 8.231-4.036 8.345-4.031a.222.222 0 01.2.238.218.218 0 01-.238.2c-.028 0-2.666-.113-8.044 3.94a.2.2 0 01-.133.054z" class="cls-8" data-name="Path 1282" transform="translate(-234.89 -731.857)"/></g></g><g id="Group_3240" data-name="Group 3240" transform="translate(298.513 159.681)"><path id="Path_2268" d="M761.5 667.049c-.419 8.339-9.494 22.916-17.833 22.5s-12.788-15.681-12.364-24.02 9.3-50.073 17.64-49.648 12.971 42.829 12.557 51.168z" class="cls-7" data-name="Path 2268" transform="translate(-731.271 -615.874)"/><g id="Group_3235" data-name="Group 3235" transform="translate(12.843 5.204)"><path id="Path_1266" d="M754.174 693.087h-.011a.217.217 0 01-.2-.232l4.206-67.583a.207.207 0 01.232-.2.217.217 0 01.2.232l-4.201 67.579a.226.226 0 01-.226.204z" class="cls-8" data-name="Path 1266" transform="translate(-753.958 -625.067)"/></g><path id="Path_2269" d="M747.4 681.928a57.95 57.95 0 00-4.218 13.111c-.442 2.31-.724 4.818.323 6.929a8.3 8.3 0 006.216 4.065c6.2 1.019 12.4-2.78 16.032-7.9s5.208-11.39 6.652-17.5c1.138-4.812 2.253-9.7 4.4-14.181.917-1.925 6.3-9.347 3.753-11.271-3.482-2.734-13.559.238-20.012 7.292a75.031 75.031 0 00-13.146 19.455z" data-name="Path 2269" transform="translate(-736.269 -632.491)" opacity=".77" fill="#0e8efd"/><g id="Group_3236" data-name="Group 3236" transform="translate(13.234 27.475)"><path id="Path_1268" d="M754.87 710.689a.211.211 0 01-.056-.006.22.22 0 01-.159-.266c.074-.294 7.71-29.387 25.617-45.951a.222.222 0 01.311.011.217.217 0 01-.011.311c-17.816 16.474-25.413 45.448-25.486 45.736a.213.213 0 01-.216.165z" class="cls-8" data-name="Path 1268" transform="translate(-754.649 -664.407)"/></g><path id="Path_2270" d="M816.369 688.046a7.274 7.274 0 01-2.932 2.542c-1.342.759-2.774 1.421-4.161 2.066a48.133 48.133 0 00-5.31 2.746 17.961 17.961 0 00-3.255 2.593 41.224 41.224 0 015.163-8.775c2.638-3.4 5.344-5.118 8.056-5.118.062 0 .124 0 .187.006a3.029 3.029 0 011.936.617 2.751 2.751 0 01.316 3.323z" class="cls-7" data-name="Path 2270" transform="translate(-761.4 -645.477)"/><path id="Path_2271" d="M819.6 720.315a7.342 7.342 0 01-3.736 1.047c-1.54.108-3.119.1-4.642.091a48.028 48.028 0 00-5.973.209 18.152 18.152 0 00-4.053.951 41.016 41.016 0 018.418-5.724c3.838-1.942 7.02-2.338 9.471-1.177l.17.085a3.038 3.038 0 011.489 1.387 2.762 2.762 0 01-1.144 3.131z" class="cls-7" data-name="Path 2271" transform="translate(-761.613 -658.911)"/><path id="Path_2272" d="M813.27 734.98a5.019 5.019 0 01-2.349-1.234c-.815-.668-1.6-1.41-2.349-2.134a33.365 33.365 0 00-3.068-2.695 12.194 12.194 0 00-2.463-1.426 28.1 28.1 0 016.873 1.1c2.819.832 4.586 2.129 5.259 3.85.017.04.028.079.045.119a2.105 2.105 0 01.091 1.387 1.883 1.883 0 01-2.039 1.033z" class="cls-7" data-name="Path 2272" transform="translate(-762.411 -664.303)"/><g id="Group_3237" data-name="Group 3237" transform="translate(30.348 40.521)"><path id="Path_1272" d="M785.1 720.857a.233.233 0 01-.221-.221c0-.181.334-18.116 21.948-33.146a.22.22 0 11.249.362c-21.427 14.9-21.761 32.608-21.761 32.784a.213.213 0 01-.215.221z" class="cls-8" data-name="Path 1272" transform="translate(-784.88 -687.451)"/></g><g id="Group_3238" data-name="Group 3238" transform="translate(30.344 59.162)"><path id="Path_1273" d="M785.1 735.144a.2.2 0 01-.1-.023.219.219 0 01-.108-.294A27.863 27.863 0 01809.9 720.38a.221.221 0 110 .442 27.4 27.4 0 00-24.6 14.193.217.217 0 01-.2.129z" class="cls-8" data-name="Path 1273" transform="translate(-784.873 -720.38)"/></g><g id="Group_3239" data-name="Group 3239" transform="translate(40.209 63.143)"><path id="Path_1274" d="M813.356 733.129a.226.226 0 01-.13-.045c-7.144-5.389-10.66-5.231-10.688-5.225a.222.222 0 01-.238-.2.229.229 0 01.2-.238c.147-.017 3.674-.2 10.988 5.316a.224.224 0 01.045.311.25.25 0 01-.177.081z" class="cls-8" data-name="Path 1274" transform="translate(-802.3 -727.412)"/></g></g><g id="Group_3309" data-name="Group 3309"><g id="Group_3233" data-name="Group 3233" transform="translate(229.705 101.269)"><g id="Group_2199" data-name="Group 2199"><path id="Path_1312" d="M618.179 574.509c.852-.6 1.636-1.305 2-1.511a6.075 6.075 0 01.757-.232 3.028 3.028 0 001.3-.548l1.172-1.286a1.27 1.27 0 011.91-.285c.681.6.479 1.457-.2 2.066l-.8.913a5.238 5.238 0 00-1.111 1.834 7.759 7.759 0 01-3.17 3.078c-.742.445-1.864.129-3.337-.373-.723-.247-1.769-.845-.868-1.183.757-.282 3.033.331 4.037-1.766.05-.1.156-.377.053-.472-.3-.285-.978.362-1.427.567-.632.289-1.138.19-1.294-.042s.369-.326.978-.76z" class="cls-11" data-name="Path 1312" transform="translate(-615.482 -504.241)"/><path id="Path_1313" d="M662.1 455.317s-1.88 22.564-8.626 30.178c-4.064 4.589-14.006 12.458-16.308 14.261a.851.851 0 01-1.008.027 7.439 7.439 0 01-.605-.472 6.949 6.949 0 01-.62-.654 1.017 1.017 0 01.03-1.351c2.58-2.8 12.7-13.919 13.934-16.841 1.412-3.352 3.843-23.142 6.077-26.007s6.517-3.494 7.126.859z" class="cls-12" data-name="Path 1313" transform="translate(-627.384 -431.049)"/><path id="Path_1314" d="M684.34 489.13l5.753-40.409 15.513-2.131 8.071 42.251z" class="cls-11" data-name="Path 1314" transform="translate(-658.139 -427.588)"/><path id="Path_1315" d="M697.593 720.678l-.015 4.555a9.928 9.928 0 00.373 2.74l.4 1.4a1.8 1.8 0 01-1.739 2.291c-3.1-.011-8.405 0-9.771 0a.445.445 0 01-.46-.373c-.114-1.328 3.725-2.222 6.621-3.341 2.2-.852 2.085-4.813 1.815-7.127a1.392 1.392 0 011.5-1.545 1.4 1.4 0 011.276 1.4z" class="cls-11" data-name="Path 1315" transform="translate(-659.399 -596.516)"/><path id="Path_1316" d="M759 717.788l1.564 5.212a2.253 2.253 0 00.308.647l1.111 1.651a1.88 1.88 0 01-1.012 2.85s-2.245.788-4.555 1.549c-2.367.776-5.346.129-5.346-.5 0-1.389 1.294-.285 3.463-1.735.727-.487 1.476-.993 2.146-1.518 1.864-1.465.236-5.171-.906-7.26a1.279 1.279 0 01.864-1.861l.54-.114a1.571 1.571 0 011.823 1.079z" class="cls-11" data-name="Path 1316" transform="translate(-699.478 -594.904)"/><path id="Path_1317" d="M701.221 557.072l-17.195-1.442s-1.731 12.515 2.614 35.166c2.039 10.624 6.286 30.924 6.286 30.924a4.886 4.886 0 003.212.3s.323-8.953.521-18.6c.19-9.246.24-19.128.83-22.362 1.201-6.601 3.732-23.986 3.732-23.986z" class="cls-5" data-name="Path 1317" transform="translate(-657.734 -495.138)"/><path id="Path_1318" d="M716.17 553.2c-1.777 9.528-5.742 23.774 1.9 37.156s15.662 27.3 15.662 27.3a4.338 4.338 0 002.842-.993s-1.339-6.065-3.276-13.15c-2.215-8.1-5.019-17.636-4.22-22.606 1.5-9.315 3.219-21.719 2.7-27.746s-14.678-4.966-15.608.039z" class="cls-5" data-name="Path 1318" transform="translate(-676.233 -491.051)"/><path id="Path_1319" d="M682.748 488.1l6.347-39.382 15.517-2.131 8.337 41.585a1.431 1.431 0 01-1.134 1.689 99.347 99.347 0 01-17.656 1.689c-5.822 0-9.094-1.13-10.582-1.849a1.506 1.506 0 01-.829-1.601z" class="cls-6" data-name="Path 1319" transform="translate(-657.141 -427.588)"/><path id="Path_1320" d="M762.935 583.348c.236-1.016.365-2.062.5-2.454a6.041 6.041 0 01.415-.677 2.985 2.985 0 00.613-1.271l.03-1.739c0-.841.407-1.476 1.244-1.476.909 0 1.324.776 1.218 1.682v1.218a5.227 5.227 0 00.38 2.112 7.787 7.787 0 01-.342 4.406c-.259.826-1.313 1.332-2.747 1.925-.7.293-1.887.537-1.434-.312.38-.711 2.492-1.754 1.861-4-.03-.11-.129-.388-.27-.392-.419-.011-.495.917-.7 1.37-.281.636-.727.894-1 .826s.06-.492.232-1.218z" class="cls-11" data-name="Path 1320" transform="translate(-706.617 -507.589)"/><path id="Path_1321" d="M727.5 449.416a24.4 24.4 0 001.484 8.314c1.9 5.217 4.741 15.079 3.048 23.77-2.431 12.515-5.563 17.572-1.507 20.49s11.834-1.948 12.058-3.573-1.514-21.548-3.482-30.182-7.488-21.046-7.488-21.046l-2.336.251a1.984 1.984 0 00-1.777 1.975z" class="cls-12" data-name="Path 1321" transform="translate(-684.877 -427.959)"/><path id="Path_1322" d="M737.006 447.643s13.515 18.169 13.489 28.34c-.015 6.13-2.268 18.607-2.8 21.483a.84.84 0 01-.738.685 7.111 7.111 0 01-.765.046 7.318 7.318 0 01-.9-.08 1.019 1.019 0 01-.871-1.035c.08-3.809.323-18.839-.689-21.849-1.16-3.451-12.423-19.9-12.644-23.527s2.581-6.925 5.918-4.063z" class="cls-12" data-name="Path 1322" transform="translate(-687.093 -427.567)"/><path id="Path_1323" d="M687.481 450.67a28.869 28.869 0 00-1.754 14.17c.94 8.356 3.112 33.8-4.49 37.643-2.409 1.218-7.907-4.17-7.907-6.172s1.834-8.691 3.573-14.775 5.928-30.231 5.928-30.231z" class="cls-12" data-name="Path 1323" transform="translate(-651.319 -430.115)"/><g id="Group_2198" data-name="Group 2198" transform="translate(28.339)"><path id="Path_1324" d="M705.335 403.3c3.463 0 4.756 2.466 4.821 7.024a9.222 9.222 0 01-1.362 4.479 3.378 3.378 0 00-.323 2.641l.761 2.572c.518 2.386-.616 3.7-2.291 4.174a3.247 3.247 0 01-2.545-.415 2.691 2.691 0 01-.772-2.766l.2-.734a1.822 1.822 0 00-1.313-2.275c-2.667-.582-3.048-3.364-3.763-7.678-.748-4.495 3.124-7.022 6.587-7.022z" class="cls-11" data-name="Path 1324" transform="translate(-695.346 -400.77)"/><path id="Path_1325" d="M691.885 397.179l1.986.605a3.941 3.941 0 002.241.015l3.965-1.149c2.4 0 6.37 1.355 5.867 4.821l-.441 2.45a2.2 2.2 0 01-1.986 1.8.776.776 0 01-1.526-.2 2.355 2.355 0 00-1.853-2.291 8.648 8.648 0 00-4.216.03 4.622 4.622 0 01-5.936-3.809 5.176 5.176 0 01-.027-.548 1.614 1.614 0 011.926-1.724z" class="cls-5" data-name="Path 1325" transform="translate(-689.96 -396.65)"/><path id="Path_1326" d="M723.87 418.864c0 1.058.392 1.914 1.412 1.914s1.67-1.454 1.67-2.511-.654-1.317-1.67-1.317-1.412.86-1.412 1.914z" class="cls-11" data-name="Path 1326" transform="translate(-710.967 -409.226)"/></g></g><path id="Path_1327" d="M715.523 434.18s-2.587 3.554-5.8 3.074a1.73 1.73 0 01.829.837s3.048-.224 4.971-3.911z" data-name="Path 1327" transform="translate(-673.862 -419.9)" fill="#e8948b"/></g><g id="Group_3306" data-name="Group 3306" transform="translate(262.443 109.297)"><g id="Group_2860" data-name="Group 2860" transform="translate(.005 .078)"><g id="Group_2859" data-name="Group 2859"><path id="Path_2090" d="M222.269 160.582a.462.462 0 10-.652-.032.462.462 0 00.652.032z" class="cls-14" data-name="Path 2090" transform="translate(-221.497 -159.778)"/></g></g><g id="Group_2863" data-name="Group 2863"><g id="Group_2862" data-name="Group 2862"><g id="Group_2861" data-name="Group 2861"><path id="Path_2091" d="M221.492 160.061c.05.055.362-.185.8-.187s.756.224.8.168c.024-.025-.026-.124-.164-.23a1.081 1.081 0 00-1.281.016c-.132.109-.179.209-.155.233z" class="cls-14" data-name="Path 2091" transform="translate(-221.486 -159.61)"/></g></g></g></g><g id="Group_3307" data-name="Group 3307" transform="translate(267.015 109.682)"><g id="Group_2866" data-name="Group 2866" transform="translate(0 .154)"><g id="Group_2865" data-name="Group 2865"><path id="Path_2092" d="M232.011 160.847a.462.462 0 10.635.151.462.462 0 00-.635-.151z" class="cls-14" data-name="Path 2092" transform="translate(-231.791 -160.778)"/></g></g><g id="Group_2869" data-name="Group 2869"><g id="Group_2868" data-name="Group 2868"><g id="Group_2867" data-name="Group 2867"><path id="Path_2093" d="M231.8 160.9c.05.055.362-.185.8-.187s.756.224.8.168c.024-.025-.026-.124-.164-.23a1.079 1.079 0 00-1.281.016c-.135.105-.182.205-.155.233z" class="cls-14" data-name="Path 2093" transform="translate(-231.791 -160.445)"/></g></g></g></g><path id="Path_2395" d="M226.674 164.81a2.115 2.115 0 00-.708-.15c-.115-.012-.2-.039-.213-.1a.622.622 0 01.082-.328l.347-.89a12.221 12.221 0 00.75-2.34 12.156 12.156 0 00-.983 2.251l-.328.9a.731.731 0 00-.062.476.3.3 0 00.2.183.758.758 0 00.2.025 2.127 2.127 0 00.715-.027z" class="cls-14" data-name="Path 2395" transform="translate(38.708 -51.062)"/><g id="Group_3308" data-name="Group 3308" transform="translate(264.621 114.182)"><g id="Group_2874" data-name="Group 2874"><path id="Path_2095" d="M228.577 170.241a8.48 8.48 0 01-2.148.624 1.21 1.21 0 001.428.482c.952-.347.72-1.106.72-1.106z" data-name="Path 2095" transform="translate(-226.429 -170.192)" fill="#fff"/></g></g></g></g></g></svg>