<svg xmlns="http://www.w3.org/2000/svg" width="346.163" height="247.023"><defs><style>.cls-2,.cls-5,.cls-6,.cls-9{fill:#fcd22f}.cls-2,.cls-5,.cls-6,.cls-8{opacity:.1}.cls-3{fill:#fff}.cls-4{fill:#3acc6c}.cls-5,.cls-6{stroke:#fcd22f}.cls-6{stroke-miterlimit:10;stroke-width:3px}.cls-10{fill:#fab9af}.cls-11{fill:#0e8efd}.cls-12{fill:#404040}.cls-15{fill:#14365b}</style></defs><g id="Group_3285" data-name="Group 3285" transform="translate(-573 -293)"><ellipse id="Ellipse_54" cx="154.09" cy="7.705" data-name="Ellipse 54" rx="154.09" ry="7.705" transform="translate(592.142 524.612)" opacity=".2" fill="#fcd22f"/><g id="undraw_to_do_xvvc" transform="translate(573 293)"><path id="Path_1524" d="M373.313 178.382A80.99 80.99 0 01279.5 258.3H151.179a109.067 109.067 0 1188.836-141.636 80.938 80.938 0 01133.3 61.72z" class="cls-2" data-name="Path 1524" transform="translate(-27.15 -41.19)"/><path id="Path_1525" d="M353.926 481.974a81.059 81.059 0 01-62.718 16.151h-128.32a109.184 109.184 0 01-118.958-75.1c10.445-22.325 37.287-38.215 68.757-38.215 30.667 0 56.938 15.091 67.924 36.524a91.178 91.178 0 0116.373-1.471c31.785 0 58.847 16.212 69.066 38.893a89.308 89.308 0 0126.108-3.841c25.922-.001 48.707 10.785 61.768 27.059z" class="cls-2" data-name="Path 1525" transform="translate(-38.859 -281.017)"/><path id="Rectangle_1014" d="M0 0h143.23v11.18H0z" class="cls-3" data-name="Rectangle 1014" transform="translate(112.925 95.96)"/><path id="Rectangle_1015" d="M0 0h143.23v11.18H0z" class="cls-3" data-name="Rectangle 1015" transform="translate(112.925 120.13)"/><path id="Rectangle_1016" d="M0 0h143.23v11.18H0z" class="cls-3" data-name="Rectangle 1016" transform="translate(112.925 144.3)"/><path id="Path_1526" d="M864.709 364.25l-.761.761 2.448 2.448 5.439-5.439-.762-.762-4.678 4.65zm6.582 1.033a4.333 4.333 0 11-3.155-4.173l.843-.843a5.059 5.059 0 00-2.04-.408 5.439 5.439 0 105.439 5.439z" class="cls-4" data-name="Path 1526" transform="translate(-777.929 -263.582)"/><path id="Path_1527" d="M864.709 444.25l-.761.761 2.448 2.448 5.439-5.439-.762-.761-4.678 4.65zm6.582 1.033a4.333 4.333 0 11-3.155-4.173l.843-.843a5.059 5.059 0 00-2.04-.408 5.439 5.439 0 105.439 5.439z" class="cls-4" data-name="Path 1527" transform="translate(-777.929 -319.412)"/><path id="Path_1528" d="M902.471 276.215a2.278 2.278 0 01-.411-1.269c0-2.753 5.614-4.986 12.54-4.986s12.54 2.233 12.54 4.986a2.363 2.363 0 01-.52 1.417c7.711.858 12.909 2.472 12.909 4.324 0 2.753-11.5 4.986-25.685 4.986s-25.685-2.233-25.685-4.986c.001-1.952 5.833-3.656 14.312-4.472z" class="cls-5" data-name="Path 1528" transform="translate(-628.023 -200.844)"/><path id="Path_1529" d="M759.486 103.854a1.883 1.883 0 01-.335-1.036c0-2.248 4.581-4.067 10.229-4.067s10.232 1.813 10.232 4.067a1.926 1.926 0 01-.42 1.154c6.288.7 10.528 2.019 10.528 3.529 0 2.245-9.367 4.067-20.953 4.067s-20.956-1.813-20.956-4.067c-.001-1.601 4.758-2.983 11.675-3.647z" class="cls-5" data-name="Path 1529" transform="translate(-530.072 -81.357)"/><path id="Path_1530" d="M302.7 158.416a2.264 2.264 0 01-.677-1.148c-.6-2.689 4.394-6.089 11.153-7.594s12.728-.55 13.326 2.139a2.369 2.369 0 01-.2 1.5c7.711-.837 13.135-.393 13.537 1.414.6 2.686-10.141 7.367-23.987 10.449s-25.555 3.409-26.153.719c-.42-1.916 4.913-4.835 13.001-7.479z" class="cls-5" data-name="Path 1530" transform="translate(-210.361 -116.396)"/><path id="Path_1531" d="M194.689 164.671a1.736 1.736 0 00-2.139.638 5.113 5.113 0 00-.74 2.306c-.269 1.786-.465 3.838.74 5.185a16.862 16.862 0 00-13.9-11.22" class="cls-6" data-name="Path 1531" transform="translate(-132.871 -125.201)"/><path id="Path_1532" d="M410.964 260.447a1.128 1.128 0 00-1.375.411 3.272 3.272 0 00-.477 1.481c-.172 1.151-.3 2.469.477 3.324a10.836 10.836 0 00-8.929-7.213" class="cls-6" data-name="Path 1532" transform="translate(-287.808 -192.811)"/><path id="Path_1533" d="M741.464 201.174a1.132 1.132 0 00-1.375.411 3.274 3.274 0 00-.478 1.484c-.172 1.148-.3 2.466.478 3.324a10.842 10.842 0 00-8.929-7.213" class="cls-6" data-name="Path 1533" transform="translate(-518.45 -151.448)"/><path id="Path_1534" d="M200.227 787.64a11.177 11.177 0 01-.242 2.345c-.03.145-.063.3-.1.426-.858 3.442-3.279 5.959-6.167 6.119h-.3c-3.055 0-5.639-2.635-6.491-6.264a7.454 7.454 0 01-.066-.3 11.181 11.181 0 01-.242-2.345c0-4.916 3.043-8.9 6.8-8.9s6.808 4.012 6.808 8.919z" data-name="Path 1534" transform="translate(-138.432 -555.898)" fill="#3f3d56"/><path id="Path_1535" d="M200.255 787.675a11.177 11.177 0 01-.242 2.345c-.03.145-.063.3-.1.426h-.3a13.867 13.867 0 01-2.224-.3 13.581 13.581 0 01-1.982.453 13.837 13.837 0 01-1.553.145h-.526a14.047 14.047 0 01-1.863-.124 13.654 13.654 0 01-2.921-.725 13.776 13.776 0 01-1.577.423 7.093 7.093 0 01-.066-.3 11.178 11.178 0 01-.242-2.345c0-4.916 3.043-8.9 6.8-8.9s6.796 3.995 6.796 8.902z" class="cls-8" data-name="Path 1535" transform="translate(-138.46 -555.932)"/><path id="Path_1536" d="M177.116 707.119a13.761 13.761 0 00-1.481-6.228l-8 2.487 7.02-4.128a13.819 13.819 0 00-10.383-5.917 13.816 13.816 0 00-1.079-1.426l-11.483 3.575 9.419-5.539a13.818 13.818 0 00-21.756 7.37l9.836 11.323-10.67-7.718a13.821 13.821 0 0012.373 24.382 13.875 13.875 0 008.848.245 13.833 13.833 0 0016.807-13.495c0-.3 0-.6-.03-.907a13.787 13.787 0 00.58-4.028z" class="cls-9" data-name="Path 1536" transform="translate(-100.818 -491.954)"/><path id="Path_1537" d="M176.83 754.529a36.836 36.836 0 00-12.794-.163c-4.8.795-9.709 2.541-14.4 1.266-2.756-.749-5.137-2.484-7.829-3.448a14.859 14.859 0 00-8.083-.484 13.827 13.827 0 0017.13 18.451 13.876 13.876 0 008.848.245A13.833 13.833 0 00176.5 756.9c0-.3 0-.6-.03-.907a13.642 13.642 0 00.36-1.464z" class="cls-8" data-name="Path 1537" transform="translate(-100.77 -536.802)"/><path id="Path_1538" d="M942.048 707.5l12.323-7.252a29.72 29.72 0 00-6.3-7.554l-23.246 7.252 18.215-10.709a29.613 29.613 0 00-43.84 25.991c0 16.353 13.259 16.922 29.613 16.922s29.613-.568 29.613-16.922a29.506 29.506 0 00-2.541-12.015z" class="cls-9" data-name="Path 1538" transform="translate(-635.727 -490.916)"/><path id="Path_1539" d="M945.135 767.226a22.677 22.677 0 00-4.366-3.43c-2.239-1.484-4.554-3-7.188-3.505-2.318-.444-4.708-.07-7.062-.206a16.5 16.5 0 01-10.821-4.959c-1.683-1.74-3.006-3.877-5.031-5.206a11.023 11.023 0 00-7.536-1.384 19.987 19.987 0 00-2.23.456 29.535 29.535 0 00-1.749 10.047c0 16.354 13.259 16.922 29.613 16.922 7.935 0 15.142-.133 20.46-2.139l-.888-1.662a23.217 23.217 0 00-3.202-4.934z" class="cls-8" data-name="Path 1539" transform="translate(-635.692 -534.74)"/><path id="Path_1561" d="M602.709 636.25l-.762.762 2.448 2.448 5.439-5.439-.762-.761-4.677 4.65zm6.581 1.034a4.333 4.333 0 11-3.155-4.173l.843-.843a5.054 5.054 0 00-2.039-.408 5.439 5.439 0 105.439 5.439z" class="cls-4" data-name="Path 1561" transform="translate(-515.786 -487.272)"/><g id="Group_3310" data-name="Group 3310" transform="translate(-51 4)"><g id="Group_3233" data-name="Group 3233" transform="translate(229.705 101.269)"><g id="Group_2199" data-name="Group 2199"><path id="Path_1312" d="M618.179 574.509c.852-.6 1.636-1.305 2-1.511a6.075 6.075 0 01.757-.232 3.028 3.028 0 001.3-.548l1.172-1.286a1.27 1.27 0 011.91-.285c.681.6.479 1.457-.2 2.066l-.8.913a5.238 5.238 0 00-1.111 1.834 7.759 7.759 0 01-3.17 3.078c-.742.445-1.864.129-3.337-.373-.723-.247-1.769-.845-.868-1.183.757-.282 3.033.331 4.037-1.766.05-.1.156-.377.053-.472-.3-.285-.978.362-1.427.567-.632.289-1.138.19-1.294-.042s.369-.326.978-.76z" class="cls-10" data-name="Path 1312" transform="translate(-615.482 -504.241)"/><path id="Path_1313" d="M662.1 455.317s-1.88 22.564-8.626 30.178c-4.064 4.589-14.006 12.458-16.308 14.261a.851.851 0 01-1.008.027 7.439 7.439 0 01-.605-.472 6.949 6.949 0 01-.62-.654 1.017 1.017 0 01.03-1.351c2.58-2.8 12.7-13.919 13.934-16.841 1.412-3.352 3.843-23.142 6.077-26.007s6.517-3.494 7.126.859z" class="cls-11" data-name="Path 1313" transform="translate(-627.384 -431.049)"/><path id="Path_1314" d="M684.34 489.13l5.753-40.409 15.513-2.131 8.071 42.251z" class="cls-10" data-name="Path 1314" transform="translate(-658.139 -427.588)"/><path id="Path_1315" d="M697.593 720.678l-.015 4.555a9.928 9.928 0 00.373 2.74l.4 1.4a1.8 1.8 0 01-1.739 2.291c-3.1-.011-8.405 0-9.771 0a.445.445 0 01-.46-.373c-.114-1.328 3.725-2.222 6.621-3.341 2.2-.852 2.085-4.813 1.815-7.127a1.392 1.392 0 011.5-1.545 1.4 1.4 0 011.276 1.4z" class="cls-10" data-name="Path 1315" transform="translate(-659.399 -596.516)"/><path id="Path_1316" d="M759 717.788l1.564 5.212a2.253 2.253 0 00.308.647l1.111 1.651a1.88 1.88 0 01-1.012 2.85s-2.245.788-4.555 1.549c-2.367.776-5.346.129-5.346-.5 0-1.389 1.294-.285 3.463-1.735.727-.487 1.476-.993 2.146-1.518 1.864-1.465.236-5.171-.906-7.26a1.279 1.279 0 01.864-1.861l.54-.114a1.571 1.571 0 011.823 1.079z" class="cls-10" data-name="Path 1316" transform="translate(-699.478 -594.904)"/><path id="Path_1317" d="M701.221 557.072l-17.195-1.442s-1.731 12.515 2.614 35.166c2.039 10.624 6.286 30.924 6.286 30.924a4.886 4.886 0 003.212.3s.323-8.953.521-18.6c.19-9.246.24-19.128.83-22.362 1.201-6.601 3.732-23.986 3.732-23.986z" class="cls-12" data-name="Path 1317" transform="translate(-657.734 -495.138)"/><path id="Path_1318" d="M716.17 553.2c-1.777 9.528-5.742 23.774 1.9 37.156s15.662 27.3 15.662 27.3a4.338 4.338 0 002.842-.993s-1.339-6.065-3.276-13.15c-2.215-8.1-5.019-17.636-4.22-22.606 1.5-9.315 3.219-21.719 2.7-27.746s-14.678-4.966-15.608.039z" class="cls-12" data-name="Path 1318" transform="translate(-676.233 -491.051)"/><path id="Path_1319" d="M682.748 488.1l6.347-39.382 15.517-2.131 8.337 41.585a1.431 1.431 0 01-1.134 1.689 99.347 99.347 0 01-17.656 1.689c-5.822 0-9.094-1.13-10.582-1.849a1.506 1.506 0 01-.829-1.601z" data-name="Path 1319" transform="translate(-657.141 -427.588)" fill="#f2f2f2"/><path id="Path_1320" d="M762.935 583.348c.236-1.016.365-2.062.5-2.454a6.041 6.041 0 01.415-.677 2.985 2.985 0 00.613-1.271l.03-1.739c0-.841.407-1.476 1.244-1.476.909 0 1.324.776 1.218 1.682v1.218a5.227 5.227 0 00.38 2.112 7.787 7.787 0 01-.342 4.406c-.259.826-1.313 1.332-2.747 1.925-.7.293-1.887.537-1.434-.312.38-.711 2.492-1.754 1.861-4-.03-.11-.129-.388-.27-.392-.419-.011-.495.917-.7 1.37-.281.636-.727.894-1 .826s.06-.492.232-1.218z" class="cls-10" data-name="Path 1320" transform="translate(-706.617 -507.589)"/><path id="Path_1321" d="M727.5 449.416a24.4 24.4 0 001.484 8.314c1.9 5.217 4.741 15.079 3.048 23.77-2.431 12.515-5.563 17.572-1.507 20.49s11.834-1.948 12.058-3.573-1.514-21.548-3.482-30.182-7.488-21.046-7.488-21.046l-2.336.251a1.984 1.984 0 00-1.777 1.975z" class="cls-11" data-name="Path 1321" transform="translate(-684.877 -427.959)"/><path id="Path_1322" d="M737.006 447.643s13.515 18.169 13.489 28.34c-.015 6.13-2.268 18.607-2.8 21.483a.84.84 0 01-.738.685 7.111 7.111 0 01-.765.046 7.318 7.318 0 01-.9-.08 1.019 1.019 0 01-.871-1.035c.08-3.809.323-18.839-.689-21.849-1.16-3.451-12.423-19.9-12.644-23.527s2.581-6.925 5.918-4.063z" class="cls-11" data-name="Path 1322" transform="translate(-687.093 -427.567)"/><path id="Path_1323" d="M687.481 450.67a28.869 28.869 0 00-1.754 14.17c.94 8.356 3.112 33.8-4.49 37.643-2.409 1.218-7.907-4.17-7.907-6.172s1.834-8.691 3.573-14.775 5.928-30.231 5.928-30.231z" class="cls-11" data-name="Path 1323" transform="translate(-651.319 -430.115)"/><g id="Group_2198" data-name="Group 2198" transform="translate(28.339)"><path id="Path_1324" d="M705.335 403.3c3.463 0 4.756 2.466 4.821 7.024a9.222 9.222 0 01-1.362 4.479 3.378 3.378 0 00-.323 2.641l.761 2.572c.518 2.386-.616 3.7-2.291 4.174a3.247 3.247 0 01-2.545-.415 2.691 2.691 0 01-.772-2.766l.2-.734a1.822 1.822 0 00-1.313-2.275c-2.667-.582-3.048-3.364-3.763-7.678-.748-4.495 3.124-7.022 6.587-7.022z" class="cls-10" data-name="Path 1324" transform="translate(-695.346 -400.77)"/><path id="Path_1325" d="M691.885 397.179l1.986.605a3.941 3.941 0 002.241.015l3.965-1.149c2.4 0 6.37 1.355 5.867 4.821l-.441 2.45a2.2 2.2 0 01-1.986 1.8.776.776 0 01-1.526-.2 2.355 2.355 0 00-1.853-2.291 8.648 8.648 0 00-4.216.03 4.622 4.622 0 01-5.936-3.809 5.176 5.176 0 01-.027-.548 1.614 1.614 0 011.926-1.724z" class="cls-12" data-name="Path 1325" transform="translate(-689.96 -396.65)"/><path id="Path_1326" d="M723.87 418.864c0 1.058.392 1.914 1.412 1.914s1.67-1.454 1.67-2.511-.654-1.317-1.67-1.317-1.412.86-1.412 1.914z" class="cls-10" data-name="Path 1326" transform="translate(-710.967 -409.226)"/></g></g><path id="Path_1327" d="M715.523 434.18s-2.587 3.554-5.8 3.074a1.73 1.73 0 01.829.837s3.048-.224 4.971-3.911z" data-name="Path 1327" transform="translate(-673.862 -419.9)" fill="#e8948b"/></g><g id="Group_3306" data-name="Group 3306" transform="translate(262.443 109.297)"><g id="Group_2860" data-name="Group 2860" transform="translate(.005 .078)"><g id="Group_2859" data-name="Group 2859"><path id="Path_2090" d="M222.269 160.582a.462.462 0 10-.652-.032.462.462 0 00.652.032z" class="cls-15" data-name="Path 2090" transform="translate(-221.497 -159.778)"/></g></g><g id="Group_2863" data-name="Group 2863"><g id="Group_2862" data-name="Group 2862"><g id="Group_2861" data-name="Group 2861"><path id="Path_2091" d="M221.492 160.061c.05.055.362-.185.8-.187s.756.224.8.168c.024-.025-.026-.124-.164-.23a1.081 1.081 0 00-1.281.016c-.132.109-.179.209-.155.233z" class="cls-15" data-name="Path 2091" transform="translate(-221.486 -159.61)"/></g></g></g></g><g id="Group_3307" data-name="Group 3307" transform="translate(267.015 109.682)"><g id="Group_2866" data-name="Group 2866" transform="translate(0 .154)"><g id="Group_2865" data-name="Group 2865"><path id="Path_2092" d="M232.011 160.847a.462.462 0 10.635.151.462.462 0 00-.635-.151z" class="cls-15" data-name="Path 2092" transform="translate(-231.791 -160.778)"/></g></g><g id="Group_2869" data-name="Group 2869"><g id="Group_2868" data-name="Group 2868"><g id="Group_2867" data-name="Group 2867"><path id="Path_2093" d="M231.8 160.9c.05.055.362-.185.8-.187s.756.224.8.168c.024-.025-.026-.124-.164-.23a1.079 1.079 0 00-1.281.016c-.135.105-.182.205-.155.233z" class="cls-15" data-name="Path 2093" transform="translate(-231.791 -160.445)"/></g></g></g></g><path id="Path_2395" d="M226.674 164.81a2.115 2.115 0 00-.708-.15c-.115-.012-.2-.039-.213-.1a.622.622 0 01.082-.328l.347-.89a12.221 12.221 0 00.75-2.34 12.156 12.156 0 00-.983 2.251l-.328.9a.731.731 0 00-.062.476.3.3 0 00.2.183.758.758 0 00.2.025 2.127 2.127 0 00.715-.027z" class="cls-15" data-name="Path 2395" transform="translate(38.708 -51.062)"/><g id="Group_3308" data-name="Group 3308" transform="translate(264.621 114.182)"><g id="Group_2874" data-name="Group 2874"><path id="Path_2095" d="M228.577 170.241a8.48 8.48 0 01-2.148.624 1.21 1.21 0 001.428.482c.952-.347.72-1.106.72-1.106z" class="cls-3" data-name="Path 2095" transform="translate(-226.429 -170.192)"/></g></g></g></g></g></svg>