<svg xmlns="http://www.w3.org/2000/svg" width="67.175" height="67.175" viewBox="0 0 67.175 67.175">
    <defs>
        <style>
            .cls-1{fill:#ee4d4d}.cls-2{fill:#fff}
        </style>
    </defs>
    <g id="Group_3344" data-name="Group 3344" transform="translate(-1060 -408)">
        <g id="Group_3281" data-name="Group 3281" transform="translate(.675 2.675)">
            <path id="Polygon_2" d="M16.043 0l16.043 25.173H0z" class="cls-1" data-name="Polygon 2" transform="rotate(90 343.216 766.39)"/>
            <g id="play-button_1_" data-name="play-button (1)" transform="translate(1059.325 405.325)">
                <path id="Path_2264" d="M63.458 18.214a33.885 33.885 0 0 0-9.919-11.65 1.367 1.367 0 1 0-1.626 2.2 31.14 31.14 0 0 1 9.115 10.7 30.514 30.514 0 0 1 3.413 14.12 30.854 30.854 0 1 1-30.853-30.85 1.367 1.367 0 1 0 0-2.734 33.568 33.568 0 1 0 29.87 18.214z" class="cls-2" data-name="Path 2264"/>
                <path id="Path_2265" d="M107.355 78.364a1.367 1.367 0 0 0-.691 1.188v30a1.367 1.367 0 1 0 2.734 0v-27.6l20.239 12.049-14.883 9.589a1.367 1.367 0 1 0 1.481 2.3l16.738-10.784a1.367 1.367 0 0 0-.041-2.324l-24.2-14.407a1.367 1.367 0 0 0-1.377-.011z" class="cls-2" data-name="Path 2265" transform="translate(-82.362 -60.372)"/>
            </g>
        </g>
    </g>
</svg>
