<svg xmlns="http://www.w3.org/2000/svg" id="undraw_to_do_xvvc" width="346.163" height="247.023" viewBox="0 0 346.163 247.023">
    <defs>
        <style>
            .cls-1,.cls-9{fill:#0e8efd}.cls-1,.cls-4,.cls-6{opacity:.1}.cls-2{fill:#fff}.cls-3{fill:#3acc6c}.cls-4{fill:none;stroke:#6c63ff;stroke-miterlimit:10;stroke-width:3px}.cls-5{fill:#3f3d56}.cls-7{fill:#fcd22f}.cls-8{fill:#fab9af}.cls-10{fill:#404040}
        </style>
    </defs>
    <path id="Path_1524" d="M373.313 178.382A80.99 80.99 0 0 1 279.5 258.3H151.179a109.067 109.067 0 1 1 88.835-141.636 80.938 80.938 0 0 1 133.3 61.72z" class="cls-1" data-name="Path 1524" transform="translate(-27.15 -41.19)"/>
    <path id="Path_1525" d="M353.926 481.974a81.059 81.059 0 0 1-62.718 16.151H162.887a109.185 109.185 0 0 1-118.957-75.1c10.445-22.325 37.287-38.215 68.757-38.215 30.667 0 56.938 15.09 67.923 36.524a91.18 91.18 0 0 1 16.373-1.472c31.785 0 58.847 16.212 69.066 38.893a89.308 89.308 0 0 1 26.108-3.841c25.923 0 48.707 10.786 61.769 27.06z" class="cls-1" data-name="Path 1525" transform="translate(-38.86 -281.017)"/>
    <path id="Rectangle_1014" d="M0 0h143.23v11.18H0z" class="cls-2" data-name="Rectangle 1014" transform="translate(112.925 95.96)"/>
    <path id="Rectangle_1015" d="M0 0h143.23v11.18H0z" class="cls-2" data-name="Rectangle 1015" transform="translate(112.925 120.13)"/>
    <path id="Rectangle_1016" d="M0 0h143.23v11.18H0z" class="cls-2" data-name="Rectangle 1016" transform="translate(112.925 144.3)"/>
    <path id="Path_1526" d="M864.709 364.25l-.762.761 2.448 2.448 5.439-5.439-.762-.761-4.678 4.65zm6.581 1.033a4.333 4.333 0 1 1-3.155-4.173l.843-.843a5.058 5.058 0 0 0-2.04-.408 5.439 5.439 0 1 0 5.439 5.439z" class="cls-3" data-name="Path 1526" transform="translate(-777.929 -263.582)"/>
    <path id="Path_1527" d="M864.709 444.25l-.762.761 2.448 2.448 5.439-5.439-.762-.761-4.678 4.65zm6.581 1.033a4.333 4.333 0 1 1-3.155-4.173l.843-.843a5.057 5.057 0 0 0-2.04-.408 5.439 5.439 0 1 0 5.439 5.439z" class="cls-3" data-name="Path 1527" transform="translate(-777.929 -319.412)"/>
    <ellipse id="Ellipse_22" cx="154.09" cy="7.705" class="cls-1" data-name="Ellipse 22" rx="154.09" ry="7.705" transform="translate(19.143 231.612)"/>
    <path id="Path_1528" d="M902.471 276.215a2.278 2.278 0 0 1-.411-1.269c0-2.753 5.614-4.986 12.54-4.986s12.54 2.233 12.54 4.986a2.363 2.363 0 0 1-.52 1.417c7.711.858 12.909 2.472 12.909 4.324 0 2.753-11.5 4.986-25.685 4.986s-25.685-2.233-25.685-4.986c.001-1.952 5.833-3.656 14.312-4.472z" class="cls-1" data-name="Path 1528" transform="translate(-628.023 -200.844)"/>
    <path id="Path_1529" d="M759.486 103.854a1.883 1.883 0 0 1-.335-1.036c0-2.248 4.581-4.067 10.229-4.067s10.232 1.813 10.232 4.067a1.925 1.925 0 0 1-.42 1.154c6.288.7 10.528 2.019 10.528 3.529 0 2.245-9.367 4.067-20.953 4.067s-20.956-1.813-20.956-4.067c-.001-1.601 4.758-2.983 11.675-3.647z" class="cls-1" data-name="Path 1529" transform="translate(-530.072 -81.357)"/>
    <path id="Path_1530" d="M302.7 158.416a2.263 2.263 0 0 1-.677-1.148c-.6-2.689 4.394-6.089 11.153-7.594s12.728-.55 13.326 2.139a2.369 2.369 0 0 1-.2 1.5c7.711-.837 13.135-.393 13.537 1.414.6 2.686-10.141 7.367-23.987 10.449s-25.555 3.409-26.153.719c-.42-1.916 4.913-4.835 13.001-7.479z" class="cls-1" data-name="Path 1530" transform="translate(-210.361 -116.396)"/>
    <path id="Path_1531" d="M194.689 164.671a1.737 1.737 0 0 0-2.139.638 5.113 5.113 0 0 0-.74 2.306c-.269 1.786-.465 3.838.74 5.185a16.862 16.862 0 0 0-13.9-11.22" class="cls-4" data-name="Path 1531" transform="translate(-132.871 -125.201)"/>
    <path id="Path_1532" d="M410.964 260.447a1.128 1.128 0 0 0-1.375.411 3.272 3.272 0 0 0-.477 1.481c-.172 1.151-.3 2.469.477 3.324a10.836 10.836 0 0 0-8.929-7.213" class="cls-4" data-name="Path 1532" transform="translate(-287.808 -192.811)"/>
    <path id="Path_1533" d="M741.464 201.174a1.132 1.132 0 0 0-1.375.411 3.272 3.272 0 0 0-.477 1.484c-.172 1.148-.3 2.466.477 3.324a10.842 10.842 0 0 0-8.929-7.213" class="cls-4" data-name="Path 1533" transform="translate(-518.451 -151.448)"/>
    <path id="Path_1534" d="M200.227 787.64a11.176 11.176 0 0 1-.242 2.345c-.03.145-.063.3-.1.426-.858 3.442-3.279 5.959-6.167 6.119h-.3c-3.055 0-5.639-2.635-6.491-6.264a7.093 7.093 0 0 1-.066-.3 11.18 11.18 0 0 1-.242-2.345c0-4.917 3.043-8.9 6.8-8.9s6.808 4.012 6.808 8.919z" class="cls-5" data-name="Path 1534" transform="translate(-138.432 -555.898)"/>
    <path id="Path_1535" d="M200.255 787.675a11.178 11.178 0 0 1-.242 2.345c-.03.145-.063.3-.1.426h-.3a13.846 13.846 0 0 1-2.224-.3 13.59 13.59 0 0 1-1.982.453 13.851 13.851 0 0 1-1.553.145h-.526a14.026 14.026 0 0 1-1.863-.124 13.654 13.654 0 0 1-2.921-.725 13.776 13.776 0 0 1-1.577.423 7.093 7.093 0 0 1-.066-.3 11.178 11.178 0 0 1-.242-2.345c0-4.916 3.043-8.9 6.8-8.9s6.796 3.995 6.796 8.902z" class="cls-6" data-name="Path 1535" transform="translate(-138.46 -555.933)"/>
    <path id="Path_1536" d="M177.116 707.119a13.761 13.761 0 0 0-1.481-6.228l-8 2.487 7.019-4.128a13.819 13.819 0 0 0-10.383-5.917 13.793 13.793 0 0 0-1.079-1.426l-11.483 3.575 9.419-5.539a13.818 13.818 0 0 0-21.756 7.37l9.836 11.322-10.67-7.718a13.821 13.821 0 0 0 12.374 24.383 13.875 13.875 0 0 0 8.848.245 13.833 13.833 0 0 0 16.807-13.495c0-.3 0-.6-.03-.906a13.789 13.789 0 0 0 .58-4.028z" class="cls-7" data-name="Path 1536" transform="translate(-100.818 -491.954)"/>
    <path id="Path_1537" d="M176.83 754.53a36.833 36.833 0 0 0-12.794-.163c-4.8.795-9.709 2.541-14.4 1.266-2.756-.749-5.137-2.484-7.829-3.448a14.861 14.861 0 0 0-8.083-.484 13.827 13.827 0 0 0 17.13 18.451 13.876 13.876 0 0 0 8.848.245A13.833 13.833 0 0 0 176.5 756.9c0-.3 0-.6-.03-.906a13.646 13.646 0 0 0 .36-1.464z" class="cls-6" data-name="Path 1537" transform="translate(-100.77 -536.802)"/>
    <path id="Path_1538" d="M942.048 707.5l12.323-7.252a29.72 29.72 0 0 0-6.3-7.554l-23.246 7.252 18.215-10.709a29.613 29.613 0 0 0-43.84 25.991c0 16.354 13.259 16.922 29.613 16.922s29.613-.568 29.613-16.922a29.508 29.508 0 0 0-2.541-12.014z" class="cls-7" data-name="Path 1538" transform="translate(-635.727 -490.916)"/>
    <path id="Path_1539" d="M945.135 767.226a22.675 22.675 0 0 0-4.366-3.43c-2.239-1.484-4.554-3-7.189-3.505-2.318-.444-4.708-.07-7.062-.205a16.5 16.5 0 0 1-10.821-4.959c-1.683-1.74-3.007-3.877-5.031-5.206a11.022 11.022 0 0 0-7.536-1.384 19.948 19.948 0 0 0-2.23.456 29.529 29.529 0 0 0-1.75 10.047c0 16.354 13.259 16.922 29.613 16.922 7.935 0 15.142-.133 20.46-2.139l-.888-1.662a23.224 23.224 0 0 0-3.2-4.935z" class="cls-6" data-name="Path 1539" transform="translate(-635.692 -534.741)"/>
    <path id="Path_1561" d="M602.709 636.25l-.762.761 2.448 2.448 5.439-5.439-.762-.761-4.678 4.65zm6.581 1.033a4.333 4.333 0 1 1-3.155-4.173l.843-.843a5.057 5.057 0 0 0-2.04-.408 5.439 5.439 0 1 0 5.439 5.439z" class="cls-3" data-name="Path 1561" transform="translate(-515.786 -487.272)"/>
    <g id="Group_2229" data-name="Group 2229" transform="translate(-4165.711 250.319)">
        <path id="Path_1568" d="M748.5 326.774s3.038 6.44 2.552 8.384a5.322 5.322 0 0 0 .365 3.524l5.589-.243 5.225-4.982s-7.9-5.468-7.412-8.141-6.319 1.458-6.319 1.458z" class="cls-8" data-name="Path 1568" transform="translate(3631.576 -449.945)"/>
        <path id="Path_1569" d="M799.687 376.12l2.43 15.066s0 13.608-.729 13.851a20.37 20.37 0 0 1-3.888 0v-15.309l.972-13.365z" class="cls-9" data-name="Path 1569" transform="translate(3594.483 -489.085)"/>
        <path id="Path_1570" d="M799.687 376.12l2.43 15.066s0 13.608-.729 13.851a20.37 20.37 0 0 1-3.888 0v-15.309l.972-13.365z" class="cls-6" data-name="Path 1570" transform="translate(3594.483 -489.085)"/>
        <path id="Path_1571" d="M706 625.86l1.944 7.533 2.916-2.187 2.673-6.075-3.4-4.131z" class="cls-8" data-name="Path 1571" transform="translate(3702.75 -650.372)"/>
        <path id="Path_1572" d="M866.367 733.12s-3.159 2.43-3.159 4.86c0 0-1.7 2.673-3.645 2.43v5.1s-6.075 3.159-1.458 3.888 8.019-5.1 8.019-5.1 4.374-7.047 3.645-8.019a32.031 32.031 0 0 0-3.402-3.159z" class="cls-10" data-name="Path 1572" transform="translate(3549.917 -759.333)"/>
        <path id="Path_1573" d="M786.043 490.187A13.95 13.95 0 0 1 788.491 503s-2.43 17.5 5.346 24.057 12.879 20.9 12.879 20.9l-5.832 5.346s-6.318-14.337-12.879-19.926-7.29-11.907-7.29-11.907v-22.116l-1.215-9.234z" class="cls-10" data-name="Path 1573" transform="translate(3608.109 -575.383)"/>
        <path id="Path_1575" d="M613.43 664l-2.43 2.673.972 2.187 2.916.972 5.1-1.944-.729-2.916z" class="cls-8" data-name="Path 1575" transform="translate(3774.665 -682.923)"/>
        <path id="Path_1576" d="M746.919 770.775s-5.832 2.916-7.29 1.7a3.9 3.9 0 0 1-1.454-2.775 13.925 13.925 0 0 0-4.864 1.56c-1.944 1.215-3.4 2.673-5.832 2.673s-1.458 2.916 3.159 3.159 16.281-.243 16.281-1.458z" class="cls-10" data-name="Path 1576" transform="translate(3648.466 -787.025)"/>
        <path id="Path_1577" d="M740.729 498.578a60.433 60.433 0 0 0 2.43 30.133s2.673 8.991 3.888 11.664 2.43 21.627 1.944 22.356c0 0 3.888 3.159 7.29.972 0 0-.243-11.178.243-12.15s.972-9.477-1.944-16.524-.486-24.057-.486-24.057 5.832-8.748 1.458-13.851z" class="cls-10" data-name="Path 1577" transform="translate(3638.132 -580.682)"/>
        <circle id="Ellipse_29" cx="6.804" cy="6.804" r="6.804" class="cls-8" data-name="Ellipse 29" transform="translate(4375.702 -135.079)"/>
        <path id="Path_1578" d="M747 383.328s-1.944 2.916-3.4 1.458c-1.028-1.028-7.608 1.205-11.4 2.612-1.589.588-2.69 1.033-2.69 1.033s-.1-3.368-.413-7.633c-.355-4.894-.977-10.974-2.017-14.481-1.944-6.561 2.916-9.234 2.916-9.234s4.131-4.86 3.888-5.589 10.935-4.374 10.935-4.374c1.205.243 2.181 11.18 2.181 11.18s-2.187 8.748-3.4 14.094 3.4 10.934 3.4 10.934z" class="cls-9" data-name="Path 1578" transform="translate(3648.146 -467.133)"/>
        <path id="Path_1579" d="M690.154 497.12s-5.346 5.346-8.019 6.8-4.131 6.318-1.944 7.29 7.047-5.346 7.047-5.346l7.047-5.832z" class="cls-8" data-name="Path 1579" transform="translate(3684.09 -580.682)"/>
        <path id="Path_1580" d="M726.064 276.282a1.084 1.084 0 0 0-.776 1.429 2.1 2.1 0 0 0 1.366 1.184c.589.207 1.218.277 1.808.482a5.322 5.322 0 0 1 1.607.933 8.918 8.918 0 0 1 2.991 5.619 15.388 15.388 0 0 1-.6 6.436 3.734 3.734 0 0 1-1.914 2.711 21.5 21.5 0 0 0 3.451-1.17c.817-.385 1.584-.872 2.41-1.238a15.115 15.115 0 0 1 3.816-1 5.246 5.246 0 0 1 2.756.095 5.543 5.543 0 0 1 1.445.974l2.779 2.335q.073-1.523.1-3.047a6.78 6.78 0 0 0-.315-2.613 23.888 23.888 0 0 0-1.34-2.243c-1.01-1.907-.681-4.2-.662-6.362a13.746 13.746 0 0 0-1.375-6.492 8.275 8.275 0 0 0-4.955-4.232c-2.9-.8-5.965.39-8.634 1.785a7.83 7.83 0 0 0-1.74 1.132 8.458 8.458 0 0 0-1.415 1.93l-1.321 2.214" class="cls-10" data-name="Path 1580" transform="translate(3649.19 -408.62)"/>
        <path id="Path_1581" d="M752.036 375.111s-4.617 17.5-5.1 18.711c-.35.872-4.466 5.514-7.03 7.958-1.589.588-2.69 1.033-2.69 1.033s-.1-3.368-.413-7.633c1.978-2.194 4.058-4.274 4.058-4.274s2.187-13.365 1.944-18.468 4.86-6.318 4.86-6.318c5.829.729 4.371 8.991 4.371 8.991z" class="cls-6" data-name="Path 1581" transform="translate(3640.433 -481.515)"/>
        <path id="Path_1582" d="M733.7 362.12s-5.1 1.215-4.86 6.318-1.944 18.468-1.944 18.468-8.262 8.262-7.533 9.234a17.353 17.353 0 0 0 4.6 3.142c.747.26 8.523-8.246 9.009-9.461s5.1-18.711 5.1-18.711 1.456-8.261-4.372-8.99z" class="cls-9" data-name="Path 1582" transform="translate(3653.671 -478.487)"/>
    </g>
</svg>
